<?xml version="1.0" encoding="UTF-8"?>
<svg version="1.1" viewBox="0 0 2048 926" width="4096" height="1852" xmlns="http://www.w3.org/2000/svg">
<path transform="translate(1074,28)" d="m0 0h134l1 1 29 1 2 1 42 1 1 1 14 1 3 1 15 1 2 1 23 1 1 1 17 1 2 2-1 5-3 3 3 1 12 1 2 1 13 2 24 1 2 3-1 6-1 1h-11l-2-1-24-1-4-1-16-1-4-1-23-1-5-1-32-1-2-1-97-1v-2h-2v2h-4-6-2-18v-2l-58 1-1 1-47 1-1 1-35 1-1 1-41 1-1 1h-5v19l-14 22-3 5-2 6-1 7 17-7 14-4 12-1 1-1h11l12 3 17 9 16 10 10 9 6 7 4 5v24l-3 7v5l6 2 10 2h20l6-4 5-5 11-7 7-3 9-1 1-1h34l1 1 10 2 15 8 6 5v2h2l8 10 8 13 6 12 3 15 1 1v25l-3 9-9 12-3 3 2 4 7 7 28 20 12 11 10 13 2 4 1 10 1 1v29l-1 2v7l6 7 21 42 8 20 4 14v16l-5 9-8 8-1 46h2v42h-2v11l-1 2-1 22-1 2-1 10-3 8-1 10-1 1-1 9-3 7-1 7-3 7-1 9-1 1v11l1 2v9h2v26l-3 6-6 8-7 6-9 6-1 12-3 9-3 8-2 3h-2v5l-5 5-4 2-1 9-3 6-3 14-5 5h-3v-9l4-16 2-5-38 12-10 2-16 1-1 1h-21v11l-3 3-9 1-1 1h-7l2-14-10 2h-33l-17-4-15-5-25-1v22h-8l-1-26-5-3-2-3 1-5 2-1 10 5 30 1 26 9h33l2-1 16-1 2-1 13-1 1-1 33-1 1-1 16-3 13-4 12-5 18-7 3-1 7-21 1-21 1-1 1-12 1-2v-20l-1-1-1-23-1-1-1-13-3-12-5-22-2-8-1 10-3 8-3 18-5 10-2 8-11 21-5 7-7 3v-7l6-11 7-13 4-10 6-14 4-16 2-6 1-10 1-2 1-15-5 5-6 11-6 10-8 12-4 2-1-1v-8l6-10 6-11 7-11 7-10 6-10 3-10-5-11-4-8v-2l-8 7-7 6-16 6-3 1-12 1-1 1h-38l-4-1-14-1-26-5-18-6-10-6-9-9-2 3-6 14-3 3-1 19-1 1-1 9-5 12-4 10v6l20 12 10 7 5 3v5l-9-3-9-4-16-9-1-1-7-1 1 8 18 11 14 8 22 7 4 3 8 2h10v-4l2-5 14-7 25-17 11-8 9-6 9-5 2-2h-17l-1 1-19 1-1 1h-19l-17-3-22-8-5-3v-5l5-3 26 9 13 2h23l1-1 17-1 1-1 25-1 1-1h8l2 5-3 7-9 5-8 7-14 9-9 7-32 21-11 5h-4v2h7l2 1 10 1 2 1 13 1v8h-11l-1-1h-28l-5 5h-3v2l13 3 12 3 3 3-3 3-10-1-23-5-7-3h-14l15 3h2v8h-7l-16-5-17-8-13-8-9-5-1-3h-4l-2 6v6l18 11 10 6 18 8 16 7 18 5 6 3 15 3 9 2 1 1 11 1 3 3-1 5-2 2-13 3-8 6-5 3h-3v2h9l5 3v5h-13l-2-1-16-2-38-9-12-3 18 6 24 7 10 3 5 3v2h-10l-31-7-20-7-18-6 5 5 9 6 10 6 12 3 8 3 8 2v3l-6 1-10-2-22-9-10-4-14-9-1 13-1 1-1 22-1 2-1 10-1 1-1 8h-2v9l-1 1-1 8h-7l-1-1v-6l3-6 1-10 1-2 1-10 1-2 1-20 1-2 1-10 1-2 1-11 1-1 1-10 1-2 1-10 1-2 1-10 1-6-1-7v-4-7l-11 3-11 1-2 1h-8v-2h-34l-1-1-45-1-1-1-30-1-17-3h-4l-3 8v21l3 7-1 5-4 2-5-9-4-20 5-16 1-3-10-1-28-7-13-5-16-9-11-9-4-5v-2h-2l-9-13v12l10 19 10 14 9 11v7l-4-1-13-13-7-9-6-12-2-7h-2l2 4 1 16 1 1v5h2l8 13 9 10 13 10 16 9 11 5 24 6 16 3 2 1 10 1 11 3 17 3 2 1h26l1-1 15-1 1-1 7-1 1-1 9-1 7-3 12-2v6l-9 4-18 6h-5v2l20-1 12-3 11-1 1-1h10v5l-6 3-22 5-2 1h-46l-34-6-22-4 3 9 6 11 4 5 14 8 5 4 2 5-3 2h-5v2l4 2 11 7 16 6 10 1 2 1 19 1 4 7-3 3h-20l-2-1-10-1-6-3-12-3-12-9-5-4-4-8-3-8-1-3h-2l-1 7-1 8-1 1-1 7-1 1-1 9-1 2-1 12-2 5-4-1-2-2v-14l1-2 1-10 5-20 2-4-1-4-10-16-2-5v-10l-9-3-18-3-14-4-18-7-12-7-10-9-8-7-11-11-12-17-14-15-7-8-3-8v-14l3-8 3-12 9-14 8-8 6-4 4-10 2-10 8-10 6-12 6-16 8-16 2-6 1-39 1-1 1-27h-2v-38h2v-22l1-1v-10l-4-10-15-10-6-14-2-2h-11l-2 1h-13l-12-6-8-7-9-16-6-7-20-7-10-7-7-9-2-4v-28l3-12 2-10 2-4 3-15-6 2-38 1-3 1-35 1-1 1h-75l-2-3v-6l2-3 91-1 3-1h4l15-1 1-1 48-1 5-10 4-10 6-12 8-20 6-16 3-13 1-5-1-1-1-9-6-11-3-4v-2l-5-2-9-9-2-4v-7l-22 1-1 1-18 1-25 3-29 3-48 7-51 9-22 5h-8v-6l7-4 17-3 41-8 28-5 43-6 15-2 15-1 4-1 25-1 1-1 25-1 4-4 1-5-21 1-23 3-47 5-31 5-35 5-57 10-5 1h-7v-8l26-6 32-6 24-4 25-3 16-3 12-2 17-1 2-1 19-1 1-1 18-1 2-1 16-1 2-1 17-1 1-1 21-1 1-1 13-1 1-1 19-1 1-1 19-1 1-1 26-1 2-1 35-1 1-1 45-1 3-1 29-1 1-1 29-1 1-1 25-1 1-1 25-1 1-1 26-1 2-1 26-1 2-1 31-1zm34 8-2 1-31 1-7 1-23 1-34 3-26 1-7 1-17 1-6 1-24 1-6 1-21 1-5 1-32 1-26 2-7 1-38 1-6 1-24 1-5 1-20 1-2 1-14 2-21 1-1 1-13 1-2 2v8h15l1-1 21-1 1-1 11-1 1-1 17-1 1-1 25-1 1-1 25-1 1-1 29-1 1-1 39-3 3-1 11-1 1-1 45-1 1-1 15-1 1-1 48-1 2-1 23-1 3-1 47-1 1-1h141l5 1 77 1 6 1h43v-2l-28-1-1-1-14-1-20-3-45-1-3-1-26-1-8-1-22-1-6-1zm-169 26-3 2v2h10v-2l-3-2zm18 0-6 3-5 9-7 7-5 3-3 5-3 3-3 7-3 1v2l-3-2v-7l6-11 7-11v-7h-24v2h-18l-2 7v10l1 2 1 9 5 11 2 6 8 16 2 2 4 10 1 9 1 1 1 10 3 8h4l7-16 8-20 3-16 3-10 4-9 8-10 6-11v-13zm-83 6-3 1-18 1-4 1-18 1-4 1-14 1-4 1-27 1-1 1-25 1 1 5 2 2 4 10v11l-3 6-1 7-7 14-3 10-1 1-1 9-1 1v8h-2l-1 13-1 1-1 7-1 1-1 9-1 1-1 9-1 1v18h5l1-1 89-1 1-1 35-1 1-1h26l7 2 2 6v2l-61 1-1 1-57 1-5 1h-41l-4-1-2 6-1 13-1 1-1 9-1 3h31l7-3 17-5 12-5 10-3 10-5 12-3 1-1 13-1 1-1h49l3 1h18l-1-7v-12l3-9-14-1-9-4-3-5h-2l-1-9 4-4 16-9 5-5-1-1-1-11-5-18-18-36-2-6-1-10-1-1v-11l1-2v-7zm-132 12 6 12 1 5-2 2-4-1-5-2-2-5-5-6-1-3h-19l-2 1-9 1v6l4 6h2l2 4 1 5-1 1 1 7 4 10 1 5h2l-1 17-3 7-1 9-5 11-5 13-5 10-3 8-5 10-3 8-3 5-2 6-1 7-3 6-3 12-1 1v12h-2l-1 9-1 1v17l5 8 8 5 14 6h7l1-18 7-15 4-9h-7l-13 4-6 2v-8l4-1 7-4 5-2 7-1 1-1 10-1 1-12 1-1 1-23 1-1 1-11 1-1 1-13 1-1 1-11 1-1 3-16 1-2 1-10 1-2 1-9 1-1 2-10 5-13 5-11 2-6v-11l-3-7-2-5-3-4zm-54 4v5l4 5h2v2h2l-2-5-5-7zm296 36-15 4-7 3-9 3-8 7-8 14-9 18-2 5-5 5-6 2-17 9-2 2 1 4 3 2h25l15-7 11-6 16-9 8-5 10-3 1-1h7l18 5 8 2h32l7-3 6-8-2-5-9-10-8-7-8-6-15-8-11-5-8-2zm162 60-3 1-11 2-10 4-8 7-11 7-6 2-9-1-19-4-4 1-1 2 6 11 13 9 14 7 12 4 9 1-2-5-6-12-2-8 7-1 2 4 4 10 6 10 16 12 10 6 17 10 19 10 14 7 10 4 4-2 7-11 4-12v-8l-4-16-10-20-10-13-9-8-16-8-8-2zm-120 2 1 4 8 2 6 2h17l1-4-1-4zm-47 0-12 5-13 7-15 9-16 8-3 3v6h11l1-1 9-1 9-4v4l4-1 5-5 10-8 7-3 2-10 2-9zm11 4-4 6-2 5v14l8 11 3 3v4h-9l-4-6-7-11-4 1-5 5-1 3-5 3-3 3-15 1-16 4-3 5-3 3v2l5 2 8 2 20 1 1 1 13 1 4 1 1-5-2-5 6 2 7 6 6 4h3v-6l5 3 8 7 15 8 10 5 11 5 8 2h5l2-7v-14l-1-4 4-9 5-4 2-3v-12l-2-5-5 1-4 2h-8l-2-6 1-6 4-6v-3l-12-3-27-8-5-1 1 11-1 3-5-3-7-12zm92 44v2l13 8 9 4 8 2h8v-2l-3-2-12-3-16-7zm-222 12-1 1-20 1-16 4-23 9-30 11-9 3-33 1-8 8-8 13-2 7-2 4v16l6 14 7 9 7 7 9 4h12l1-1 7 1 7 2 9 9 1 5h2l1 3 11 7 4 5 3 7 1 24h-2v24h-2v26h2l-1 57-1 1-1 15-3 8-4 10-6 12-5 16-5 8-7 8-1 1-1 17-1 1-1 11-3 9-2 9v7l7 1 8 10 9 9 13 9 12 5 10 4 25 7 15 3 14 4 11 2 24 1 1 1 39 1 1 1h31v2h23l1-1 15-1 6-4 3-5v-8l-4-16-3-10v-12l1-2 1-10 1-2v-25h-2v-11l-1-2v-62l1-2 1-10 5-17 4-13 2-10 2-6 2-10 4-14 7-16 5-12 10-21 7-16 5-11 4-10 2-8 2-4 2-10 2-6v-29l-6-12-7-8-6-7-12-7-16-3-11-6-11-7-12-6-25-5-3-1-19-1-21-3-20-6-16-4-12-2zm210 0-8 8 1 4v19l-3 5 2 4 13 13 10 16 2 4 1 11 1 5-1 1-1 19-3 6 1 3 3-3v-3l5-1 5-5 2-3-1-6-2-8-4-11 4-3 10-2 11-6 9-6 5-1-5-13-4-14-1-14-2-7-16-3-17-6-5-1-2 2v16h-6v-7l-1-2-1-11zm59 4v4 9l-1 6 1 1 1 14 8 16 11 12 10 7 11 5 15 3v6h-14l-12-5-9-4-10-9-2 1-2 6v26l9 6h1v-6l17 8 5 2 10 1h4l13-1 5-3-4-16-5-12-5-9-5-5-8-6-18-11-12-7-5-4-5-10-1-24zm11 6-1 7-1 2 3 8 4 6 8 6 24 12 10 6 14 8v4l-3 1v7l3 9 7 8 13 8 11 6 6 5 6 10 1 6-7 1v-6l-4-6-4-2h-6l-3 3-3-1h-9l-2 1-12 1-17 4-3 1h-12l-14-4-11-7-5-5-4-6v-26l5-10-1-5-3 1-1 2-3 1-6 8-3 3-13 5 1 7 3 11 13 1-1 5-15 7-10 6-11 1-3 12-3 8-3 11-5 10-4 10-12 24-4 10-10 20-1 8-1 1v6l9 7 4 5 12 9 14 10 8 5h2l-1-9-3-10-1-8-1-1-1-15-1-2v-21l3-1 3 10 1 14 1 2 1 13 1 1 1 9 3 8 3-1 4-10 4-8 7-21 1-1 1-10 1-2 1-14 4-4 3-1-1 21-1 1-1 11-6 16-9 18-3 8-7 9-4 5-8 16-4 10-6 12 1 4 5 5h2v2l15 10 12 4 19 4-3-3-12-5-11-8-3-3-2-3-1-6 7 3 8 7 20 10 14 4 16 3 4 3h34l12-4 5-3 7-1 11-9 9-17 7-13 3-12 5-12 2-10 2-6 2-10 10-36 3-16 1-2 1-12 1-5 3 1 2 4v12l-1 2v8l5 6v18l-1 1-1 7-1 1-2 9-5 12-9 11v2h9l11-5 11-8 5-4 7-10 1-2v-10l-8-20-5-10-4-10-4-8-4-10-8-14-12-17-10-17-5-16-6-9-8-6-10-8h-2v-2l-7-4-1-8 9 5 17 11 13 12 8 10 8 14h1v-15l-4-10-6-9h-2l-2-4-8-8-12-8-12-9-8-7h-2l-2-4-8-10-24-13-8-4-20-11-11-8zm68 96v2l2-1zm2 2 1 2h2v-2zm68 112-3 17-3 10v5l2-1 4-15 2-9v-7zm-244 30-2 6-1 9-5 12-2 7-1 11-1 1v12h-2v18h-2v13l1 1 1 17 2 7 6 1 7-1 13-10 8-11 6-16 8-20 7-16 1-6-4-5-11-8-12-11-14-11zm236 4v2h2v-2zm26 24-14 7-15 3-6 3-5 10-1 8-1 1 1 7 2 4 2 8 1 11h2v27l1 1v57l-1 2v28l1 1 1 21 1 1 1 48 6-3 8-10 3-11v-4l-1-9-3-12v-17l1-1 1-9 3-7 4-16 3-16 3-10 1-7 1-1 1-20 1-2 1-15 1-1v-33h-2v-15l-1-1v-18l1-1v-9zm-49 46-3 4v11l6 13h2l2-5v-8l-4-14zm-198 40-10 5-7 2-10 1v6l1 1v23l-1 1-1 15-1 1v10l1 2 2 13 1 4 3-1 4-10 4-18 5-14 3-12 5-10 2-10 2-4v-5zm204 12-5 2v10l1 1 1 13 1 1 1 7 1 1 1 7h2l1-18v-4l1-7-1-1-1-12zm-505 8-7 7-13 26-2 8v9l14 18h2l1-20 1-1 1-20 1-2 1-10 3-10v-5zm290 56-6 11v3h2l6-10 2-1-1-3zm8 4v2l12 6-1-5-7-3zm-6 10-2 2v4l3 2h6l3-6-2-2zm26 0-9 9-3 2 1 5 6 2 18 1 6 1h13l6-8-12-3-21-8zm-39 32-1 3 3-1v-2zm7 6-4 7-2 3 5-2 6-4v-4zm15 6-5 3-4 4-10 7-3 3-3 1v2l4-1 12-6 14-9v-2zm-22 4m34 4-12 7-12 9-3 2v2l7-1 12-7 13-9v-3zm11 6-5 4-14 9-3 1v2h7l4-3 10-4 13-6-3-3zm19 8-8 6-5 4v4l5-1 13-8 4-5zm17 4-8 6-8 5 1 3 10 3 4 1 11-6 6-5-1-4-1-1-9-2zm-88 8v3l5 2zm47 0m-25 2 1 2 3-1z" fill="#41596C"/>
<path transform="translate(1074,28)" d="m0 0h134l1 1 29 1 2 1 42 1 1 1 14 1 3 1 15 1 2 1 23 1 1 1 17 1 2 2-1 5-3 3 3 1 12 1 2 1 13 2 24 1 2 3-1 6-1 1h-11l-2-1-24-1-4-1-16-1-4-1-23-1-5-1-32-1-2-1-97-1v-2h-2v2h-4-6-2-18v-2l-58 1-1 1-47 1-1 1-35 1-1 1-41 1-1 1h-5v19l-14 22-3 5-2 6-1 7 17-7 14-4 12-1 1-1h11l12 3 17 9 16 10 10 9 6 7 4 5v24l-3 7-1-2 1-5v-8l-4 1-2 6-5 2h-33l-25-5h-12l-12 5-34 18-17 7h-14l-11-3-3-4 2-4 10-6 8-4 3 1-18 10-1 4 3 2h25l15-7 11-6 16-9 8-5 10-3 1-1h7l18 5 8 2h32l6-2 6-8-2-5-8-9-8-7-8-6-15-8-11-5-8-2h-19l-15 4-7 3-9 3-8 7v-3l8-7 16-6 15-4 12-1 16 3 14 6 17 10 15 14 6 6 1-3-6-8-9-10-14-9-19-10-9-3h-22l-22 5-12 5-7 3 1-10 3-10 7-11 8-12 2-8v-15l1-1 85-5 47-2h88l79 1 70 4 73 6 1-2-36-4-75-5-22-1-66-1h-118l-54 2-77 4-77 5-73 6-1 2h-2v2l9-2h19l46-4 1 1-1 20 2 12 5 13 13 25 5 16 3 17v6l-18 10-6 4 1 7 5 5 6 3 4 1 13 1-3 10-1 12 8 1-2 5-5 6-13-1-19-2-34 1-17 1-24 8-29 11-20 6-22 1-13 1h-8l-14 3-9 6-1 2 19-6 10-2-2 4-8 15-5 14-1 17-8-1-15-6-9-6-4-8v-18h1l1 17 5 8 11 6 10 4 7 1v-18l7-15 4-8-9 1-10 3-6 1v-8l11-6 5-2 7-1 1-1h10v-12l1-1 1-23 1-1 1-11 1-1 1-13 1-1 1-11 1-1 3-16 1-2 1-10 1-2 1-9 1-1 2-10 5-13 5-11 2-6v-11l-3-7-2-5-2-4-3 1 6 11 1 5-3 3-4-1-5-3-8-11v-3l-19 1-2 1h-9v5l-2-2-1-6 26-2-9-1h-27l-1-3 1-8h-3l-2 11-1 1-41 4-43 4-41 6-47 8-39 8-11 3 11-1 46-9 49-8 67-8 34-3h14v3l-22 1-1 1-18 1-25 3-29 3-48 7-51 9-22 5h-8v-6l7-4 17-3 41-8 28-5 43-6 15-2 15-1 4-1 25-1 1-1 25-1 4-4 1-5-21 1-23 3-47 5-31 5-35 5-57 10-5 1h-7v-8l26-6 32-6 24-4 25-3 16-3 12-2 17-1 2-1 19-1 1-1 18-1 2-1 16-1 2-1 17-1 1-1 21-1 1-1 13-1 1-1 19-1 1-1 19-1 1-1 26-1 2-1 35-1 1-1 45-1 3-1 29-1 1-1 29-1 1-1 25-1 1-1 25-1 1-1 26-1 2-1 26-1 2-1 31-1zm34 8-2 1-31 1-7 1-23 1-34 3-26 1-7 1-17 1-6 1-24 1-6 1-21 1-5 1-32 1-26 2-7 1-38 1-6 1-24 1-5 1-20 1-2 1-14 2-21 1-1 1-13 1-2 2v8h15l1-1 21-1 1-1 11-1 1-1 17-1 1-1 25-1 1-1 25-1 1-1 29-1 1-1 39-3 3-1 11-1 1-1 45-1 1-1 15-1 1-1 48-1 2-1 23-1 3-1 47-1 1-1h141l5 1 77 1 6 1h43v-2l-28-1-1-1-14-1-20-3-45-1-3-1-26-1-8-1-22-1-6-1zm-234 32-3 1-18 1-4 1-18 1-4 1-14 1-4 1-27 1-1 1-25 1 1 5 2 2 4 10v11l-3 6-1 7-7 14-3 10-1 1-1 9-1 1v8h-2l-1 13-1 1-1 7-1 1-1 9-1 1-1 9-1 1v18h5l1-1 89-1 1-1 35-1 1-1h26l7 2 2 6v2l-61 1-1 1-57 1-5 1h-41l-4-1-2 6-1 13-1 1-1 9-1 3h31l7-3 17-5 12-5 10-3 10-5 12-3 1-1 13-1 1-1h49l3 1h18l-1-7v-12l3-9-14-1-9-4-3-5h-2l-1-9 4-4 16-9 5-5-1-1-1-11-5-18-18-36-2-6-1-10-1-1v-11l1-2v-7z" fill="#FEFEFE"/>
<path transform="translate(1093,49)" d="m0 0h118l66 1 35 2 52 3 37 4 9 2-1 3-73-6-70-4-96-1h-71l-66 3-66 4v15l-3 10-13 19-3 8-2 9v4l15-7 19-5 6-1h22l13 5 22 12 10 8 10 11 3 5-2 4-15-15-11-8-14-8-16-6-16-2-16 3-21 7-8 6-2 2-2 6-10 19-4 8-2 5-6 6-10 2-15 8-2 4 4 4 9 2h14l21-9 17-9 19-10 6-2h12l25 5h33l4-1 3-6 5-2v9l-2 8v6l24 5h12l9-6 12-9 10-4 12-2h29l12 3 16 8 10 9 10 15 8 17 4 14v13l-2 3-1-11-5-15-8-16-7-11-9-10-13-8-15-5-5-1h-14l-19 3-11 4-16 12-6 3-10 1-11-2-9-2h-7l1 9 5 7 11 8 16 8 15 5 9 2-11-22v-5l3-2 11 21 8 9 15 10 26 15 16 9 17 8 6 3-1 3-7 1-16-8-28-16-18-11-4-2v10h-1v-5h-2l-3-8-5-3-1 3-1-1-2 2-2-5-20-5-4-2-8-2v-2l-6-2-11-7 6 7 9 8 13 6 24 6v15h-1l-1-10-23-5-14-4-4 1-1 16h-6l-1-23-8 6-5 6 1 4 2 3-1 14-3 5-3-1-1-21-1-4 4-9 4-4h2l1-3v-12l-1-5-9 4h-6l-3-3-2-4 1-6 5-9-9-1-20-6-15-5 2 5v6l-2 3-4-1-6-9-3-5-4 1-4 9v14l8 11 3 3-1 5h-9l-9-13-2-4-4 1-4 4-2 4-5 3-3 3-15 1-10 3h-6l-1 4-5 6 11 2 2 1 20 1 1 1 13 1 4 1-1-9h5l8 7 9 5v-6l4 1 3 5 7 6 26 14 26 9 10 9 7 7 9 14 2 4v4l-3-1v-2h-2l1 5-2-2-6-12-8-10-7-7-10-5-15-4-12-6-13-8-8-4-12-3-25-4-27-2-27-7-15-4-15-2h-11l-33 2-12 3-24 9-33 12-9 2-28 1-8 6-7 11-2 4-1 8-3 5h-2l1 17 5 12 7 11 4 5 10 6h24l3 5-10 1h-18l-10-5-7-6-8-13-6-9-4-3-17-6-10-6-7-8-3-9v-15l3-18 7-24 3-9-55 3-57 2h-33l-17-1v-4l93-2 39-3 31-1 5-11 18-42 8-22 2-7v-12l-4-11-7-10-7-4-8-8-2-4v-10l-48 4-67 8-49 8-51 10h-7l1-2 25-6 47-9 58-9 38-4 46-4 8-1 3-11 4-1-1 11h32l10 1v1l-19 2h-13l4 9 3 4v2h2l4 5-1 10 3 6 2 6v5h2v17l-3 7-1 9-5 11-5 13-5 10-3 8-5 10-3 8-3 5-2 6-1 7-3 6-3 12-1 1-1 12h-2v9l-3 1 1 18 4 8 10 6 17 6 4 1v-17l6-16 8-14 1-2-19 5-9 2 2-4 8-5 14-3h13l8-1 22-1 20-6 38-14 15-5 43-2 20 1 14 2h6l7-10h-6l-2-1v-12l4-10h-13l-9-3-5-4-3-5v-5l14-9 10-5-1-11-4-20-7-16-11-21-4-13-1-13 1-15-46 4h-22l-1 1h-5l-1-4 4-1 73-6 79-5 75-4zm-154 13-3 2v2h10v-2l-3-2zm18 0-6 3-5 9-7 7-5 3-3 5-3 3-3 7-3 1v2l-3-2v-7l6-11 7-11v-7h-24v2h-18l-2 7v10l1 2 1 9 5 11 2 6 8 16 2 2 4 10 1 9 1 1 1 10 3 8h4l7-16 8-20 3-16 3-10 4-9 8-10 6-11v-13zm-269 22v5l4 5h2v2h2l-2-5-5-7zm338 98 1 4 8 2 6 2h17l1-4-1-4zm-47 0-12 5-13 7-15 9-16 8-3 3v6h11l1-1 9-1 9-4v4l4-1 5-5 10-8 7-3 2-10 2-9z" fill="#3A5266"/>
<path transform="translate(1215,289)" d="m0 0h2l4 6 9 8 12 8 13 10 10 9 9 11 4 8 2 10 1 37 6 7 21 42 8 20 4 14v16l-5 9-8 8-1 46h2v42h-2v11l-1 2-1 22-1 2-1 10-3 8-1 10-1 1-1 9-3 7-1 7-3 7-1 9-1 1v11l1 2v9h2v26l-3 6-6 8-7 6-9 6-1 12-3 9-3 8-2 3h-2v5l-5 5-4 2-1 9-3 6-3 14-5 5h-3v-9l4-16 2-5-38 12-10 2-16 1-1 1h-21v11l-3 3-9 1-1 1h-7l2-14-10 2h-33l-17-4-15-5-25-1v22h-8l-1-26-5-3-2-3 1-5 2-1 10 5 30 1 26 9h33l2-1 16-1 2-1 13-1 1-1 33-1 1-1 16-3 13-4 12-5 18-7 3-1 7-21 1-21 1-1 1-12 1-2v-20l-1-1-1-23-1-1-1-13-3-12-5-22-2-8-1 10-3 8-3 18-5 10-2 8-11 21-5 7-7 3v-7l6-11 7-13 4-10 6-14 4-16 2-6 1-10 1-2 1-15-5 5-6 11-6 10-8 12-4 2-1-1v-8l6-10 6-11 7-11 7-10 6-10 4-10-3-9-8-15-1-3 8-16 7-15 8-25 9-35 8-31 3-14 1-10 3-1 1 5v9l-7 32-9 33-2 8 8-16 5-13 4-19 1-11h2l3 6-1 13-4 17-6 14-4 8-4 5 9-1 11-5 11-8 5-5 6-8 1-2v-10l-8-20-5-10-4-10-4-8-4-10-8-14-12-17-10-17-5-16-5-7v-2l-5-2-10-9-5-3v-2l-5-2-3-2v-8l4 1 13 8 10 7 13 12 8 10 7 13v-14l-4-10-5-7v-2h-2l-7-8-9-7-17-12-11-9-6-10 1-2zm81 231-14 7-15 3-6 3-5 10-1 8-1 1 1 7 2 4 2 8 1 11h2v27l1 1v57l-1 2v28l1 1 1 21 1 1 1 48 6-3 8-10 3-11v-4l-1-9-3-12v-17l1-1 1-9 3-7 4-16 3-16 3-10 1-7 1-1 1-20 1-2 1-15 1-1v-33h-2v-15l-1-1v-18l1-1v-9zm-49 46-3 4v11l6 13h2l2-5v-8l-4-14zm6 52-5 2v10l1 1 1 13 1 1 1 7 1 1 1 7h2l1-18v-4l1-7-1-1-1-12z" fill="#496072"/>
<path transform="translate(560,606)" d="m0 0h80l1 1h90l1-1h7l9 4v4l-28 1-1 1h-5v4h-10v-2h-8v16h2v40h2v32h2l1 54 6 1 1-1h20l1 1 17 1 1 1 35 1 1 1 12 1 3 2-1 4-2 2h-42l-2-1-16-1-4-1-17-1v8l-5-1-7-3 1 45 1 1 1 58 2 1 10 1 10 3 1 1v5l-4 5-7-1-31-6-23-1-2-1-27-1v2h-26l-5-1-1 1-25 1-6 1h-15l-2-5 1-4 2-1 10-1 2-1 18-1 1-1h78l1 1h7l1-1v-41l-1-1v-46h-32v2h-80l-2-7-11-1-7-3v-9l89-1 1-1h22l1 1h8l1-1h8v-62l1-5-1-1-1-49-1-1v-28h-6v2h-66v2l-11-1-5 1 1-5 1-3h-13l-2-1-13-1v-6zm120 14v18l8 4v-20l-2-2zm0 30v22h2v46h-2v46h8v-31l-1-1-1-31-1-1-1-39-1-1-1-10zm12 24 1 4 1-4zm0 6v38h2v-38zm-14 18m16 60v2h2v-2zm-12 16v5l2 5h-2v70l1 1 1 9v10l3 2h3l2-5-1-5-1-92zm14 0v12h2v-12zm-44 2v2h20v-2zm44 12v6h2v-5zm2 78v10h2v-9z" fill="#41596D"/>
<path transform="translate(696,108)" d="m0 0 5 5 5 8 3 9v12l-8 24-15 35-9 22-2 2-31 1-39 3-52 1h-41l1 3 16 1h33l57-2 41-2h14l-3 12-6 21-3 18v15l3 9 7 8 14 7 14 5 6 7 9 15 5 6 10 6 3 1h18l9-1-2-3h-24l-10-6-8-10-6-11-3-8v-17h1l1 16 6 14 7 9 9 8 6 2h12l1-1 7 1 7 2 5 4 5 6v5h2l3 3 10 7 4 5 3 7v24h-2v24h-2v26h2v57l-1 1-1 15-3 8-4 10-6 12-5 16-5 8-7 8-1 1-1 17-1 1-1 11-3 9-3 16h7l5 6 2 5 12 12 13 8 16 7 31 9 28 7 11 2 27 2 45 2 17 1 37 1-2 4h-32l-24-2-19-1-37-1-22-2-14-3-4 16v13l3 15h-2l-5-10-2-7v-12l4-13 2-4-19-4-23-6-18-8-14-9-10-9-3-1-9-13v12l10 19 10 14 9 11v7l-4-1-13-13-7-9-6-12-2-7h-2l2 4 1 16 1 1v5h2l8 13 9 10 13 10 16 9 11 5 24 6 16 3 2 1 10 1 11 3 17 3 2 1h26l1-1 15-1 1-1 7-1 1-1 9-1 7-3 12-2v6l-9 4-18 6h-5v2l20-1 12-3 11-1 1-1h10v5l-6 3-22 5-2 1h-46l-34-6-22-4 3 9 6 11 4 5 14 8 5 4 2 5-3 2h-5v2l4 2 11 7 16 6 10 1 2 1 19 1 4 7-3 3h-20l-2-1-10-1-6-3-12-3-12-9-5-4-4-8-3-8-1-3h-2l-1 7-1 8-1 1-1 7-1 1-1 9-1 2-1 12-2 5-4-1-2-2v-14l1-2 1-10 5-20 2-4-1-4-10-16-2-5v-10l-9-3-18-3-14-4-18-7-12-7-10-9-8-7-11-11-12-17-14-15-7-8-3-8v-14l3-8 3-12 9-14 8-8 6-4 4-10 2-10 8-10 6-12 6-16 8-16 2-6 1-39 1-1 1-27h-2v-38h2v-22l1-1v-10l-4-10-15-10-6-14-2-2h-11l-2 1h-13l-12-6-8-7-9-16-6-7-20-7-10-7-7-9-2-4v-28l3-12 2-10 2-4 3-15-6 2-38 1-3 1-35 1-1 1h-75l-2-3v-6l2-3 91-1 3-1h4l15-1 1-1 48-1 5-10 4-10 6-12 8-20 6-16 3-13 1-5-1-1-1-9-6-11-3-4zm52 518-7 7-13 26-2 8v9l14 18h2l1-20 1-1 1-20 1-2 1-10 3-10v-5z" fill="#3A5367"/>
<path transform="translate(1140,170)" d="m0 0h34l1 1 10 2 15 8 6 5v2h2l8 10 8 13 6 12 3 15 1 1v25l-3 9-9 12-3 3 2 4 7 7 28 20 12 11 10 13 2 4 1 10 1 1v29l-2 2-1-30-3-12-6-10-11-12-18-14-15-10-8-8-1-4h-2l-2 5 3 4-1 2-7-9-24-13-8-4-20-11-11-8-4-2-2 8 3 8 4 6 9 6 22 11 25 15-1 5h-3l3 15 7 8 13 8 11 6 7 6 6 10 1 6-1 1h-7l-2-7-2-4-4-2h-6l-3 3-3-1h-9l-2 1-12 1-17 4-3 1h-12l-14-4-11-7-5-4-5-8v-26l5-10v-4h-2l-2 3h-3l-2 5-7 7-10 4h-3l4 13v5h13l1 5-1-3-15 2-1-9-3-10v-5l7-3 4-5-9 4h-8l1-2 10-2 11-6 9-6 4-1-5-12-4-14-1-14-1-7h-8l-17-5-8-3 3-1 17 5 15 3 1-1-1-2-5-2-17-4-14-7-10-9-5-5 1-2 13 8 4 3-6-1 1 1 11 7 9 4 16 3v-2l-11-3-16-6 4-1 7 3 17 4 3 4 5-2 5 4 1 7h2v-6l5 2 15 9 24 14 16 9 7 3 7-1v-2l-16-7-21-11-22-13-17-11-10-9-8-14-5-9-1 1 1 8 9 16v3l-9-1-15-5-16-8-8-6-6-5-3-5-1-9 1-1h7l12 3 13 1 9-3 9-6 7-6 9-4 14-3 9-1h14l15 4 14 7 10 9 9 12 8 16 5 13 2 6 1 6v-11l-5-16-8-16-7-11-8-9-14-8-11-4-6-1h-29l-15 3-10 5-14 11-4 2h-12l-24-5-1-1v-6l2 4 6 2 10 2h20l6-4 5-5 11-7 7-3 9-1zm6 10-3 1-11 2-10 4-8 7-11 7-6 2-9-1-19-4-4 1-1 2 6 11 13 9 14 7 12 4 9 1-2-5-6-12-2-8 7-1 2 4 4 10 6 10 16 12 10 6 17 10 19 10 14 7 10 4 4-2 7-11 4-12v-8l-4-16-10-20-10-13-9-8-16-8-8-2zm-17 66v4 9l-1 6 1 1 1 14 8 16 11 12 10 7 11 5 15 3v6h-14l-12-5-9-4-10-9-2 1-2 6v26l9 6h1v-6l17 8 5 2 10 1h4l13-1 5-3-4-16-5-12-5-9-5-5-8-6-18-11-12-7-5-4-5-10-1-24zm79 102v2l2-1zm2 2 1 2h2v-2z" fill="#243C4F"/>
<path transform="translate(666,618)" d="m0 0h8l1 1v25l1 28v24l3-1 1-23h2v46h-2v46h8l-1-31-1-1-1-31-1-1-1-39-1-1v-10h-2v5h-1v-35h1v18l4 1 3 2 1-18h1l1 5 1 14 2 9 1 9v14h-2l3 5 1 33v46h-2v2h2v4h-3l-3-65-3-55-3 1 3 47 2 40 1 32-2 2-5 1 1 3 7 2 1 13v83l-2-2v-92h-8l2 6v4h-2l1 70 1 1 1 9v10l5 2 1-5h1v8l-9-1-2-23-1 4-1 18-5 1-21-1h-51l-36 4-7 1v3l5-1 26-2 46-1h24l35 4 25 4h6l1-3-30-6-1-5-1-65v-39h3l1 2 1 64 1 27v15h3l-1-57-1-49 4-1 10 1v5l-5-1-7-3 1 45 1 1 1 58 2 1 10 1 10 3 1 1v5l-4 5-7-1-31-6-23-1-2-1-27-1v2h-26l-5-1-1 1-25 1-6 1h-15l-2-5 1-4 2-1 10-1 2-1 18-1 1-1h78l1 1h7l1-1v-41l-1-1v-46h-32v2h-80l-2-7-11-1-7-3v-9l89-1 1-1h22l1 1h8l1-1h8v-62l1-5-1-1-1-49-1-1v-28h-6v2h-66v2l-11-1-5 1 1-5 2 1h33l30-1zm26 62v38h2v-38zm-14 18m18 76v12h2v-12zm-44 2v2h20v-2zm44 12v6h2v-5zm2 78v10h2v-9z" fill="#3A5062"/>
<path transform="translate(882,65)" d="m0 0 2 1-1 20 2 12 5 13 13 25 5 16 3 17v6l-18 10-6 4 1 7 5 5 6 3 4 1 13 1-3 10-1 12 8 1-2 5-5 6-13-1-19-2-34 1-17 1-24 8-29 11-20 6-22 1-13 1h-8l-14 3-9 6-1 2 19-6 10-2-2 4-8 15-5 14-1 17-8-1-15-6-9-6-4-8v-18h1l1 17 5 8 11 6 10 4 7 1v-18l7-15 4-8-9 1-10 3-6 1v-8l11-6 5-2 7-1 1-1h10v-12l1-1 1-23 1-1 1-11 1-1 1-13 1-1 1-11 1-1 3-16 1-2 1-10 1-2 1-9 1-1 2-10 5-13 5-11 2-6v-11l-3-7-2-5-2-4-3 1 6 11 1 5-3 3-4-1-5-3-8-11v-3l-19 1-2 1h-9v5l-2-2-1-6 26-2-9-1 1-2 36-5 47-4h10l3 2h-2v2l9-2h19zm-8 3-3 1-18 1-4 1-18 1-4 1-14 1-4 1-27 1-1 1-25 1 1 5 2 2 4 10v11l-3 6-1 7-7 14-3 10-1 1-1 9-1 1v8h-2l-1 13-1 1-1 7-1 1-1 9-1 1-1 9-1 1v18h5l1-1 89-1 1-1 35-1 1-1h26l7 2 2 6v2l-61 1-1 1-57 1-5 1h-41l-4-1-2 6-1 13-1 1-1 9-1 3h31l7-3 17-5 12-5 10-3 10-5 12-3 1-1 13-1 1-1h49l3 1h18l-1-7v-12l3-9-14-1-9-4-3-5h-2l-1-9 4-4 16-9 5-5-1-1-1-11-5-18-18-36-2-6-1-10-1-1v-11l1-2v-7z" fill="#3A5367"/>
<path transform="translate(1215,289)" d="m0 0h2l4 6 9 8 12 8 13 10 10 9 9 11 4 8 2 10v31l-2 5 8 11 10 18 14 31 6 17 3 11v10l-5 9-6 7-13 10-13 6-21 6-4 9-1 11-1 1v8l3 10 3 26 2 35v15l-2 4-1-28-5-5-6 2-2 4-1 6-2-4h-2l-2 5-8 11-3 1-5 8-2-1 2-5 7-11 3-8 6-8 6-14-3-9-8-15-1-3 8-16 7-15 8-25 9-35 8-31 3-14 1-10 3-1 1 5v9l-7 32-9 33-2 8 8-16 5-13 4-19 1-11h2l3 6-1 13-4 17-6 14-4 8-4 5 9-1 11-5 11-8 5-5 6-8 1-2v-10l-8-20-5-10-4-10-4-8-4-10-8-14-12-17-10-17-5-16-5-7v-2l-5-2-10-9-5-3v-2l-5-2-3-2v-8l4 1 13 8 10 7 13 12 8 10 7 13v-14l-4-10-5-7v-2h-2l-7-8-9-7-17-12-11-9-6-10 1-2zm32 277-3 4v11l6 13h2l2-5v-8l-4-14z" fill="#3A5367"/>
<path transform="translate(1055,603)" d="m0 0 2 2-1 20-5 12-4 10v6l20 12 10 7 5 3v5l-9-3-9-4-16-9-1-1-7-1 1 8 18 11 14 8 22 7 4 3 8 2h10v-4l2-5 14-7 25-17 11-8 9-6 9-5 2-2h-17l-1 1-19 1-1 1h-19l-17-3-22-8-5-3v-5l5-3 26 9 13 2h23l1-1 17-1 1-1 25-1 1-1h8l2 5-3 7-9 5-8 7-14 9-9 7-32 21-11 5h-4v2h7l2 1 10 1 2 1 13 1v8h-11l-1-1h-28l-5 5h-3v2l13 3 12 3 3 3-3 3-10-1-23-5-7-3v-2l-25-1 13 6 14 5v1l-9-1-19-7-16-8-11-7-5-3-3-5v-7l1-4-4 1-1 5h-2l-4-18v-7l2 2 2 17 3-3 4-11 3-15 5-14 3-12 5-10h2l2-10 3-11zm-17 79-6 11v3h2l6-10 2-1-1-3zm8 4v2l12 6-1-5-7-3zm-6 10-2 2v4l3 2h6l3-6-2-2zm26 0-9 9-3 2 1 5 6 2 18 1 6 1h13l6-8-12-3-21-8z" fill="#3A5367"/>
<path transform="translate(1020,717)" d="m0 0 3 2v2l10 3 18 11 8 4 7 3 25 10 31 10 26 6 1 2-9 3-7 2-11 8-8 5 5 2 11 2v2h-9l-18-2-18-4-16-4-21-6-2-3h-14l25 11 30 9 19 4 2 1v2h-10l-31-7-20-7-18-6 5 5 9 6 10 6 12 3 8 3 8 2v3l-6 1-10-2-22-9-10-4-14-9-1 13-1 1-1 22-1 2-1 10-1 1-1 8h-2v9l-1 1-1 8h-7l-1-1v-6l3-6 1-10 1-2 1-10 1-2 1-20 1-2 1-10 1-2 1-11 1-1 1-10 1-2 1-10 1-2 1-10 2-5zm7 11-1 3 3-1v-2zm7 6-4 7-2 3 5-2 6-4v-4zm15 6-5 3-4 4-10 7-3 3-3 1v2l4-1 12-6 14-9v-2zm-22 4m34 4-12 7-12 9-3 2v2l7-1 12-7 13-9v-3zm11 6-5 4-14 9-3 1v2h7l4-3 10-4 13-6-3-3zm19 8-8 6-5 4v4l5-1 13-8 4-5zm17 4-8 6-8 5 1 3 10 3 4 1 11-6 6-5-1-4-1-1-9-2zm-88 8v3l5 2z" fill="#4A6072"/>
<path transform="translate(1065,166)" d="m0 0h1v9l-2 8v6l24 5h12l9-6 12-9 10-4 12-2h29l12 3 16 8 10 9 10 15 8 17 4 14v13l-2 3-1-11-5-15-8-16-7-11-9-10-13-8-15-5-5-1h-14l-19 3-11 4-16 12-6 3-10 1-11-2-9-2h-7l1 9 5 7 11 8 16 8 15 5 9 2-11-22v-5l3-2 11 21 8 9 15 10 26 15 16 9 17 8 6 3-1 3-7 1-16-8-28-16-18-11-4-2v10h-1v-5h-2l-3-8-5-3-1 3-1-1-2 2-2-5-20-5-4-2-8-2v-2l-6-2-11-7 6 7 9 8 13 6 24 6v15h-1l-1-10-23-5-14-4-4 1-1 16h-6l-1-23-8 6-5 6 1 4 2 3-1 14-3 5-3-1-1-21-1-4 4-9 4-4h2l1-3v-12l-1-5-9 4h-6l-3-3-2-4 1-6 5-9-9-1-20-6-15-5 2 5v6l-2 3-4-1-6-9-3-5-5 1 2-4h3l6 8 5 7 1-4-3-9-1-2 6-2 1-2-10-3-3-3 2-1v-2l24 4h33l4-1 3-6zm-39 16 1 4 8 2 6 2h17l1-4-1-4z" fill="#3A5366"/>
<path transform="translate(1119,436)" d="m0 0h3v21l-1 1-1 11-6 16-9 18-3 8-7 9-4 5-8 16-4 10-6 12 1 4 6 5v2l4 2 11 7 12 4 18 4-14-6-11-8-4-4-2-3v-6l5 1 12 9 18 9 14 4 16 3 4 3h34l12-4 5-3h9l8-6-2 5-8 7-10 5-11 3-16 2h-30l-23-2-28-6-13-5-10-6-7-8-2-5-2 2-5 12-6 11-10 11-8 4h-5l4-2 2-5 9-8 7-11 7-18 8-20 6-14 1-7-13-11-9-7-14-12 2-4 3 4 1 2 1-2 4 2 7 3 11 9 15 9-3-11-3-16-1-1-1-15-1-2v-21l4-2 2 3 2 8 1 14 1 2 1 13 1 1 1 9 2 7h2l4-10 4-8 7-21 1-1 1-10 1-2 1-14z" fill="#FEFEFE"/>
<path transform="translate(1126,30)" d="m0 0h45l27 1 47 3 37 2 50 5 22 2 4 2-1 1h-13l-36-3-31-3-98-5h-79l-33 2-93 7-114 8-73 4-61 5-49 5-37 3-38 4-88 13-44 8-12 1v-3l29-6 51-9 59-9 137-14 44-4 35-2 88-4 136-10 47-3z" fill="#3A5366"/>
<path transform="translate(696,108)" d="m0 0 5 5 5 8 3 9v12l-8 24-15 35-9 22-2 2-31 1-39 3-52 1h-41l1 3 16 1h33l57-2 41-2h14l-3 12-6 21-3 18v15l3 9 7 8 14 7 14 5 6 7 9 15 5 6 10 6 3 1h18l9-1-2-3h-24l-10-6-8-10-6-11-3-8v-17h1l1 16 6 14 7 9 9 8 6 2h12l1-1 7 1 7 2 5 4 5 6v5h2l3 3 10 7 4 5 3 7v24h-2v24h-2v26h2v57l-1 1-1 15-3 8-4 10-6 12-5 16-5 8-7 8-2 1 2-5 7-9 4-10 5-13 8-17 3-9 3-28-1-22-2-1 1 4-2 1-1 35-3 15-8 16-6 14-4 11-4 6-6 8-5 18-4 5-9 6-9 13-5 12-3 10-1 12v5l-2-2v-14l3-8 3-12 9-14 8-8 6-4 4-10 2-10 8-10 6-12 6-16 8-16 2-6 1-39 1-1 1-27h-2v-38h2v-22l1-1v-10l-4-10-15-10-6-14-2-2h-11l-2 1h-13l-12-6-8-7-9-16-6-7-20-7-10-7-7-9-2-4v-28l3-12 2-10 2-4 3-15-6 2-38 1-3 1-35 1-1 1h-75l-2-3v-6l2-3 91-1 3-1h4l15-1 1-1 48-1 5-10 4-10 6-12 8-20 6-16 3-13 1-5-1-1-1-9-6-11-3-4z" fill="#4C6375"/>
<path transform="translate(1057,330)" d="m0 0h7v7l-5 4-8 7-10 10-3 5-7 9-6 9-10 14-6 8-10 15-12 15-5 8-5 6-6 7-3 5-7 8-7 10-7 9-6 8-8 10-4 4-3 5-9 11-20 25-7 8-12 14-9 11-30 30-8 6-12 12-10 7-9 3h-7l-5-5v-5l2-2 4 1h7l7-3 14-11 9-8 4-5 5-5 13-12 11-12 9-11 6-7 9-11 12-14 11-13 8-10 9-12 9-11 8-11 8-10 9-12 9-11 6-8 6-9 9-13 11-15 7-10 7-9 10-14 6-8 11-13z" fill="#3C5468"/>
<path transform="translate(1287,755)" d="m0 0 1 4-7 9-7 6-9 6-1 12-3 9-3 8-2 3h-2v5l-5 5-4 2-1 9-3 6-3 14-5 5h-3v-9l4-16 2-5-38 12-10 2-16 1-1 1h-21v11l-3 3-9 1-1 1h-7l2-14-10 2h-33l-17-4-15-5-25-1v22h-8l-1-26-5-3-2-3 1-5 2-1 10 5 30 1 26 9h33l2-1 16-1 2-1 13-1 1-1 33-1 1-1 16-3 13-4 12-5 18-7 3-1 7-21h1l-1 8-4 11 5-2 3-8 4-20 10-7 8-7z" fill="#FEFEFE"/>
<path transform="translate(1071,221)" d="m0 0 14 8 4 3-6-1 1 1 11 7 9 4 16 3v-2l-11-3-16-6 4-1 7 3 17 4 3 4 5-2 4 3 1 22 5 10 8 7 22 13 15 11 7 10 7 18 1 7h2v-7l8 6 9 8 16 8-3 1-1-1h-6l-3 3-3-1h-9l-2 1-12 1-17 4-3 1h-12l-14-4-11-7-5-4-5-8v-26l5-10v-4h-2l-2 3h-3l-2 5-7 7-10 4h-3l4 13v5h13l1 5-1-3-15 2-1-9-3-10v-5l7-3 4-5-9 4h-8l1-2 10-2 11-6 9-6 4-1-5-12-4-14-1-14-1-7h-8l-17-5-8-3 3-1 17 5 15 3 1-1-1-2-5-2-17-4-14-7-10-9-5-5zm58 25v4 9l-1 6 1 1 1 14 8 16 11 12 10 7 11 5 15 3v6h-14l-12-5-9-4-10-9-2 1-2 6v26l9 6h1v-6l17 8 5 2 10 1h4l13-1 5-3-4-16-5-12-5-9-5-5-8-6-18-11-12-7-5-4-5-10-1-24zm79 102v2l2-1zm2 2 1 2h2v-2z" fill="#586D7D"/>
<path transform="translate(695,642)" d="m0 0h1l3 59 1 8 1 53 26 1 18 2 43 2 10 2v2l-10 1-29-1-25-2-4-1h-17v3l3 2-5 1-8-1 2 95v11l-2 1-2-1-2-42-1-66h-3l1 39 1 70 16 2 14 3 1 2-2 3-13-1-24-4-29-3h-24l-46 1-31 2v-3l7-2 36-4h51l26 1v-18l1-5 2 1 1 7v16h8v-93l-1-13-7-2-1-3 7-3-2-52-3-55-1-13h4l1 4 5 91v25h3l-1-52-1-33v-25z" fill="#273F53"/>
<path transform="translate(752,708)" d="m0 0h2l8 13 9 10 13 10 16 9 11 5 24 6 16 3 2 1 10 1 11 3 17 3 2 1h26l1-1 15-1 1-1 7-1 1-1 9-1 7-3 12-2v6l-9 4-18 6h-5v2l20-1 12-3 11-1 1-1h10v5l-6 3-22 5-2 1h-46l-34-6-22-4 3 9 6 11 4 5 14 8 5 4 2 5-3 2h-5v2l4 2 11 7 16 6 10 1 2 1 19 1 4 7-3 3h-20l-2-1-10-1-6-3-12-3-12-9-5-4-4-8-3-8-1-3h-2l-1 7-1 8-1 1-1 7-1 1-1 9-1 2-1 12-2 5-4-1-2-2v-14l1-2 1-10 5-20 2-4-1-4-10-16-2-5v-10l-9-3-18-3-14-4-18-7-12-7-10-9-8-7-1-2 4 2 15 12 14 8 15 6 28 7 19 5 35 6 19 4 24 2h10l19-2 17-4 6-3-18 4-15 2h-28l-16-2v-1l20-2 21-6 15-6h-2l-31 8-29 3h-9l-25-5-39-8-24-7-10-4-15-9-14-11-7-7-9-12z" fill="#FEFEFE"/>
<path transform="translate(1254,557)" d="m0 0 3 4 3 10v11h2l1 27 1 1v57l-1 2v28l1 1 1 21 1 1 1 47 6-4 6-8 3-11v-4l-1-9-3-12v-17l1-1 1-9 3-7 4-16 3-16 3-10 1-7 2-1-1 10-9 37-6 26v7l5 24-1 9-4 10-7 9-8 5h-1v-37l-2-24-1-9-2-5h-1l1 11 2 21v25l-4 35h-1v-21l1-1 1-12 1-2v-20l-1-1-1-23-1-1-1-13-3-12-5-22-2-8-1 10-3 8-3 18-5 10-2 8-11 21-5 7-7 3v-7l6-11 7-13 4-10 6-14 4-16 2-6 1-10 1-2 1-15-5 5-6 11-6 10-8 12-4 2-1-1v-8l6-10 6-11 7-11 3-2-2 5-7 11 1 1 6-8h2l9-13 3-3 4-3 1 9 1 1 1 13 1 1 1 7 1 1v7h2v-18-4l1-7-1-1v-12l-5 2-3-1 2-2 6-1 1 3 3 1 1 2 1 24v-15l-2-35-3-26-3-10z" fill="#4C6070"/>
<path transform="translate(1055,603)" d="m0 0 2 2-1 20-5 12-4 10v6l20 12 10 7 5 3v5l-9-3-9-4-16-9-1-1-7-1 1 8 18 11 14 8v2l9 3 21 8 9 2 22 2 19 3-1 2h-8l-14-2h-8l-8 2-6 5-9 1 4-4 6-4-3-2-15-4-16-6-10-2-7 8-6 5 2 4 7 3 19 2 16 1 16 6 18 4 1 2-12-1-25-6-9-2-19-1 13 6 14 5v1l-9-1-19-7-16-8-11-7-5-3-3-5v-7l1-4-4 1-1 5h-2l-4-18v-7l2 2 2 17 3-3 4-11 3-15 5-14 3-12 5-10h2l2-10 3-11zm-17 79-6 11v3h2l6-10 2-1-1-3zm8 4v2l12 6-1-5-7-3zm-6 10-2 2v4l3 2h6l3-6-2-2z" fill="#5A6E7F"/>
<path transform="translate(1093,49)" d="m0 0h118l66 1 35 2 52 3 37 4 9 2-1 3-73-6-70-4-96-1h-71l-66 3-66 4-5 5-1-4h-15l-53 4h-5l-1 4-1-2-2 1-2-2-45 4h-22l-1 1h-5l-1-4 4-1 73-6 79-5 75-4z" fill="#273F52"/>
<path transform="translate(989,464)" d="m0 0h3v7l-7 11-6 8-3 5-4 6-3 3-3 5-7 9-12 14-3 5-7 9-12 12-8 10-10 10-8 6-54 54-8 6-8 7-6 3h-3l1-7 11-11 10-8 15-14 1-2h2l2-4 5-6 12-12 1-2h2v-2l8-7 2-3h2v-2h2v-2h2v-2h2v-2h2l2-4h2v-2l8-7 5-5 10-11 9-11 9-10 6-8 11-13 10-14 6-9 7-9z" fill="#375064"/>
<path transform="translate(494,506)" d="m0 0h17l20 7 17 6 6 2 13 2 29 1 1 1 18 1 13 3 23 1 7 3-1 5-2 2h-27l-16-3-29-1-23-3-19-5-30-11h-20l-16 5-16 6h-3v-8l7-4 16-6z" fill="#FDFDFD"/>
<path transform="translate(735,204)" d="m0 0h1v18l6-2 89-1 1-1 35-1 1-1h26l8 3 2 6-3 3-59 1-1 1-57 1-5 1h-41l-4-2v5l-1 1-1 13-2 1 1-17z" fill="#FDFDFD"/>
<path transform="translate(582,416)" d="m0 0h15l16 5h23l8-3 8-2h14l17 8 16 10 7 3 12 2 12 1v7l-5 3h-19l-16-8-11-7-8-4-6-2h-16l-12 3-13 1-2 1-17-3-6-2h-19l-2 1h-8l1-5 4-6z" fill="#3B5468"/>
<path transform="translate(882,65)" d="m0 0 2 1-1 20 2 12 5 13 13 25 5 16 3 17v6l-18 10-6 4 1 7 5 5 6 3 4 1 13 1-3 10-1 12 8 1-2 5-5 6-13-1-19-2-34 1-17 1-24 8-29 11-20 6-22 1-13 1h-8l-14 3-9 6-1 2 19-6 10-2-2 4-8 15-5 14-1 17-8-1-15-6-9-6-4-8v-18h1l1 17 5 8 11 6 10 4 7 1v-18l7-15 4-8-9 1-10 3-6 1v-8l11-6 5-2 7-1 1-1h10v-12l2-1v10l3-1 2-8h1v9l-1 2h30l7-3 17-5 12-5 10-3 10-5 12-3 1-1 13-1 1-1h49l3 1 18 1-2-7v-12l3-8-13-1-10-5-2-5h-2l-2-3v-6l5-5 16-9 4-4-1-1-1-11-5-18-18-36-2-6-1-10-1-1v-11l2-9-11 2-18 1-4 1-18 1-4 1-14 1-4 1-27 1-1 1h-25l3 6 5 11v11l-3 6-1-3 1-3v-9l-6-15-3-6 29-2z" fill="#FEFEFE"/>
<path transform="translate(1006,518)" d="m0 0h4l-1 7-2 8-10 19-6 6-3 5-7 9-32 32-8 6-11 9-11 11-8 6-13 10-10 7-15 10-8 5h-3v-8l13-9 6-4 9-7 15-12 14-11 7-6h2l1-3 8-7 14-12 5-5h2v-2h2v-2h2l2-4 7-7 11-14 7-9 9-13 4-9z" fill="#4B6274"/>
<path transform="translate(696,108)" d="m0 0 5 5 5 8 3 9v12l-8 24-15 35-9 22-2 2-31 1-39 3-52 1h-41l1 3 16 1h33l57-2 41-2h14l-3 12-6 21-3 18v15l3 9 7 8 14 7 14 5 6 7 9 15 5 6 10 6 3 1h27l5 4 3 7v6l-2-2-4-10-2-2h-11l-2 1h-13l-12-6-8-7-9-16-6-7-20-7-10-7-7-9-2-4v-28l3-12 2-10 2-4 3-15-6 2-38 1-3 1-35 1-1 1h-75l-2-3v-6l2-3 91-1 3-1h4l15-1 1-1 48-1 5-10 4-10 6-12 8-20 6-16 3-13 1-5-1-1-1-9-6-11-3-4z" fill="#FEFEFE"/>
<path transform="translate(695,771)" d="m0 0h3l1 2 1 64 1 27v15h3l-1-57-1-49 4-1 10 1v5l-5-1-7-3 1 45 1 1 1 58 2 1 10 1 10 3 1 1v5l-4 5-7-1-31-6-23-1-2-1-27-1v2h-26l-5-1-1 1-25 1-6 1h-15l-2-5 1-4 2-1 10-1 2-1 18-1 1-1h78l1 1h7l1-1 1-35h1v6h2v-61h1l1 70 1 1 1 9v10l5 2 1-5h1v8l-9-1-2-23-1 4-1 18-5 1-21-1h-51l-36 4-7 1v3l5-1 26-2 46-1h24l35 4 25 4h6l1-3-30-6-1-5-1-65zm1 3v12h2v-12zm0 14v6h2v-5zm2 78v10h2v-9z" fill="#FEFEFE"/>
<path transform="translate(745,673)" d="m0 0h1l1 14 1 1 1 14 3 1 2 9 7 10 11 12 15 11 14 8 24 8 27 6 29 6 16 3h9l29-3 31-8 5-1-3 3-15 6-21 6-12 2 8 1h28l21-3 12-3 3 1-12 5-20 4-13 1-26-1-17-3-32-6-17-3-19-5-24-6-19-8-14-9-13-11-5-3-7-7-5-10-9-13-17-17-1-4 5 5 5 4-2-4h3l7 8 4 3v-23z" fill="#33495B"/>
<path transform="translate(1138,299)" d="m0 0 7 6 8 7 14 7 10 1 9 3-1 6-2 1h-12l-12-5-9-4-10-9h-1l-2 6v28l7 6 9 4h3l-6-4-2-4 6 2 16 6 6 1h11l13-4 22 1 3 3-4 5-3-1h-9l-2 1-12 1-17 4-3 1h-12l-14-4-11-7-5-4-5-8v-26l4-8 4-4v-3l3-3-2-1z" fill="#465D70"/>
<path transform="translate(858,776)" d="m0 0 2 2 4 11 6 10 4 5v2l6 2 12 7 4 4-3 3h-5v2l4 2 11 7 16 6 10 1 2 1 19 1 4 7-3 3h-20l-2-1-10-1-6-3-12-3-12-9-5-4-4-8-3-8-1-3h-2l-1 7-1 8-1 1-1 7-1 1-1 9-1 2-1 12-2 5-4-1-2-2v-14l1-2 1-10 5-20 2-4-1-4-10-16-1-10z" fill="#FEFEFE"/>
<path transform="translate(1312,614)" d="m0 0 2 1 15 1 4 1 16 1 5 1 20 1 97 11 16 1 15 2 2 3v5h-23l-56-7-62-8-37-3-16-2 1-7z" fill="#FEFEFE"/>
<path transform="translate(633,592)" d="m0 0h3v2h116v4l-5 2-9 1-1 1-147 1-1 1h-17v-10l59-1z" fill="#FEFEFE"/>
<path transform="translate(1312,602)" d="m0 0h36l4 1 18 1 3 1 20 2 40 6 24 4 14 1 2 1 16 1 5 4v4l-3 2h-7l-1-1-17-2-67-11-27-3-26-1-6-1h-26l-2 1z" fill="#FEFEFE"/>
<path transform="translate(1112,207)" d="m0 0 3 4 9 17 8 9 15 10 26 15 16 9 17 8 6 3-1 3-7 1-16-8-28-16-18-11-4-2v10h-1v-5h-2l-3-8-5-3-1 3-1-1-2 2-2-5-20-5-4-2-8-2v-2l-6-2-11-7 6 7 9 8 13 6 24 6v15h-1l-1-10-23-5-12-4-1-4h-3v-2l-4-2-5-5-3-5-2-4h-2l-1-5 1-5 5 1 7 6 16 8 13 5 13 3-11-22v-5z" fill="#263E51"/>
<path transform="translate(1246,814)" d="m0 0h6l-2 4-16 7-33 11-15 3-36 2-3 15h-7l3-6 2-8-5 5-2 9-1 1h-5l3-12 1-2-13 2-24 1-17-2-17-5-13-3-20-1-3-1 2 12v10l-2 3h-2l-1-5-1-19-1-4-4-2-2-4 9 3 5 2 27 1 25 8 5 1h31l18-3 15-2 25-1 16-2 16-5 21-8z" fill="#385165"/>
<path transform="translate(1218,302)" d="m0 0 5 3 17 12 13 10 13 13 7 12 2 6v24h-3v6l-6-5-4-8 3 10 10 15 9 14 8 16 12 26 8 21 2 11-3 9-8 9-10 8-12 6-18 5h-2l2-4 11-11-2 5-4 5 9-1 11-5 11-8 5-5 6-8 1-2v-10l-8-20-5-10-4-10-4-8-4-10-8-14-12-17-10-17-5-16-5-7v-2l-5-2-10-9-5-3v-2l-5-2-3-2v-8l4 1 13 8 10 7 13 12 8 10 7 13v-14l-4-10-5-7v-2h-2l-7-8-9-7-17-12-11-9z" fill="#374D5F"/>
<path transform="translate(1278,426)" d="m0 0 4 1 2 4v12l-1 2v8l5 6v18l-1 1-1 7-1 1-2 9-5 12-4 3 2-5 6-16 3-13 1-13-2-6h-2v11l-4 19-6 15-8 15-1-2 8-29 6-24 4-19v-14l-2 1-2 15-8 33-8 30-6 22-7 20-9 17-4 9 2 4 10 21v2h-2l-5-11-4-8v-2l-8 7-7 6-16 6-3 1-12 1-1 1h-38l-4-1-14-1-26-5-18-6-10-6-9-9-2 3-6 14-3 3-1 19-2 1v-11l-1-1-6 21h-1v-8l3-6 1-5-13 6-7 2h-10l2 7v23l-2 1-1-23-1-10h9l13-4 8-5 7-8 9-17 4-10 2 2 4 8 8 7 13 6 14 4 20 4 23 2h30l21-3 13-5 8-6 4-5-5 4-4 1 6-7 3-3h2l2-6 6-11 7-13 3-12 5-12 2-10 2-6 2-10 10-36 3-16 1-2 1-12zm0 36-3 17-3 10v5l2-1 4-15 2-9v-7zm-8 34v2h2v-2z" fill="#FEFEFE"/>
<path transform="translate(1119,436)" d="m0 0h3v21l-1 1-1 11-6 16-9 18-3 8-7 9-4 5-8 16-4 10-6 12-1-3 11-24 4-10v-3l-16-12-14-11-1-2 5 2 11 9 15 9-3-11-3-16-1-1-1-15-1-2v-21l4-2 2 3 2 8 1 14 1 2 1 13 1 1 1 9 2 7h2l4-10 4-8 7-21 1-1 1-10 1-2 1-14z" fill="#3E566A"/>
<path transform="translate(756,657)" d="m0 0 7 6 9 10 9 8 14 8 15 6 32 9 24 6 11 2 27 2 45 2 17 1 37 1-2 4h-32l-24-2-19-1-37-1-22-2-14-3-4 16v13l3 15h-2l-5-10-2-7v-12l4-13 2-4-19-4-23-6-18-8-14-9-12-11-6-9z" fill="#375064"/>
<path transform="translate(1253,536)" d="m0 0 3 1-2 7-2 6v3l3-9h1v7l-1 1v8l3 10 3 26 2 35v15l-2 4-1-28-5-5-6 2-2 4-1 6-2-4h-2l-2 5-8 11-3 1-5 8-2-1 2-5 7-11 3-8 6-8 6-14-3-9-8-15-1-3 8-16 7-15 3-8zm-6 30-3 4v11l6 13h2l2-5v-8l-4-14z" fill="#506678"/>
<path transform="translate(1126,30)" d="m0 0h45l27 1 47 3 37 2 50 5 22 2 4 2-1 1h-13l-36-3-31-3-98-5h-79l-33 2-39 3h-20l-7-2v-1l21-2 62-4z" fill="#263E51"/>
<path transform="translate(1096,755)" d="m0 0 7 1 19 6 26 6 1 2-9 3-7 2-11 8-8 5 5 2 11 2v2h-9l-18-2-18-4-16-4-21-6 1-4 6-2 10-5 20-9h2v2l-12 6-8 6-7 2 4 2 6 1h9l8-3 7-5 1-2 5-3 3-4-7-1-1-3zm12 11-8 6-8 5 1 3 10 3 4 1 11-6 6-5-1-4-1-1-9-2z" fill="#40586C"/>
<path transform="translate(784,278)" d="m0 0h6v9l-1 1-1 9-1 1-1 10-1 1v35l1 1v14l-3 3-5-1-8-8-10-16-4-10-2-4-2-7-1-11-1-2v-6l2-5 3 1 3 6 1 7 1 1 1 7 4 9 6 14 4 6 1-32 1-2 1-10 5-18z" fill="#3B5367"/>
<path transform="translate(1340,448)" d="m0 0h25l28 8 19 5 12 2 23 1 5 5-1 3-4 2h-25l-23-5-35-10h-21l-11 3v-7l5-5z" fill="#FEFEFE"/>
<path transform="translate(992,108)" d="m0 0h11l12 3 17 9 16 10 10 9 6 7 4 5v24l-3 7-1-2 1-5v-8l-4 1-2 6-5 2h-33l-25-5h-12l-12 5-34 18-17 7h-14l-11-3-3-4 2-4 10-6 8-4 3 1-18 10-1 4 3 2h25l15-7 11-6 16-9 8-5 10-3 1-1h7l18 5 8 2h32l6-2 6-8-2-5-8-9-8-7-8-6-15-8-11-5-8-2h-19l-15 4-7 3-9 3-8 7v-3l8-7 16-6 15-4 12-1 16 3 14 6 17 10 15 14 6 6 1-3-6-8-9-10-14-9-19-10-9-3h-22l-22 5-6 1 2-3 12-4 7-2 12-1z" fill="#FDFDFD"/>
<path transform="translate(913,370)" d="m0 0h5v5l-5 4-5 5-8 7-9 9-6 8-13 13-4 6-7 9-6 8-6 9-5 8-7 10-7 12-3 3-5-2 3-9 9-17 15-22 6-7 8-10 9-11 9-10 6-5 19-19z" fill="#FEFEFE"/>
<path transform="translate(1143,173)" d="m0 0h29l12 3 16 8 10 9 10 15 8 17 4 14v13l-2 3-1-11-5-15-8-16-7-11-9-10-13-8-15-5-5-1h-14l-19 3-11 4-16 12-6 3-10 1-11-2-9-2h-7v9l-2-4h-2l-2-5 1-5h2l1-3 17 3 9 2h12l9-6 12-9 10-4z" fill="#374F63"/>
<path transform="translate(1028,700)" d="m0 0 4 2 2 4 11 6 13 8 20 8 10 3h3l-17-6-10-5v-1l21 1 6 1v1l-14 1 15 3h2v8h-7l-16-5-17-8-13-8-9-5-1-3h-4l-2 6v6l18 11 10 6 18 8 16 7 18 5 6 3 15 3 9 2 1 1 11 1 3 3-1 5-2 2-13 3-8 6-5 3h-3v2h9l5 3v5h-13l-2-1-16-2-38-9-12-3 18 6 24 7 10 3 2 2-14-2-31-9-26-11-3-3h15l2 3 25 7 30 7 27 3v-2l-11-1-6-2 4-4 18-12 11-3 2-1-30-7-35-12-19-8-10-4-23-14-8-3-1-5 2-11zm14 76 1 2 3-1z" fill="#FEFEFE"/>
<path transform="translate(1279,429)" d="m0 0h2l1 5v9l-7 32-9 33-2 8 8-16 5-13 4-19 1-11h2l3 6-1 13-4 17-6 14-8 10-7 8 20-6 12-6 5-1-2 6-14 7-21 6-5 13-3 9-2 1 1-9 3-7-2-2 2-9 11-42 8-31 3-14 1-10z" fill="#395266"/>
<path transform="translate(1044,677)" d="m0 0 10 1 15 9 4 2v2l9 3 21 8 9 2 22 2 19 3-1 2h-8l-14-2h-8l-8 2-6 5-9 1 4-4 6-4-3-2-15-4-16-6-10-2-7 8-6 5 2 4 7 3 19 2 16 1 16 6 18 4 1 2-12-1-25-6-9-2-19-1 13 6 14 5v1l-9-1-19-7-16-8-11-7-5-3-1-4 3 2v2h7l6-2 4-4h6l1-2h-7l-3-2v-2l7 1 6-2-8-6-17-8v-1h7z" fill="#294154"/>
<path transform="translate(907,334)" d="m0 0 3 2-1 5-10 8-16 11-6 5-8 7-12 12-3 5-5 6-8 10-10 16-6 9-5-1v-6l8-15 10-14 13-16 11-12 13-12 13-10z" fill="#395266"/>
<path transform="translate(946,60)" d="m0 0h15l1 1v10l-3 10-7 11-6 8-5 15-4 18-8 19-6 21h-7l-3-12-4-22-8-16-9-19-4-12-1-7v-16l1-4 5-1zm-7 2-3 2v2h10v-2l-3-2zm18 0-6 3-5 9-7 7-5 3-3 5-3 3-3 7-3 1v2l-3-2v-7l6-11 7-11v-7h-24v2h-18l-2 7v10l1 2 1 9 5 11 2 6 8 16 2 2 4 10 1 9 1 1 1 10 3 8h4l7-16 8-20 3-16 3-10 4-9 8-10 6-11v-13z" fill="#FEFEFE"/>
<path transform="translate(1153,177)" d="m0 0h14l15 4 14 7 10 9 9 12 8 16 5 13 1 3v17l-5 13-6 8-5 4-18-8-21-11-22-13-17-11-10-9-8-14-5-9-1 1 1 8 9 16v3l-9-1-15-5-16-8-8-6-6-5-3-5-1-9 1-1h7l12 3 13 1 9-3 9-6 7-6 9-4 14-3zm-7 3-3 1-11 2-10 4-8 7-11 7-6 2-9-1-19-4-4 1-1 2 6 11 13 9 14 7 12 4 9 1-2-5-6-12-2-8 7-1 2 4 4 10 6 10 16 12 10 6 17 10 19 10 14 7 10 4 4-2 7-11 4-12v-8l-4-16-10-20-10-13-9-8-16-8-8-2z" fill="#FEFEFE"/>
<path transform="translate(869,240)" d="m0 0h11l20 3 32 9 5 1 35 3 25 5 10 4 14 8 10 6 10 3 13 4 8 6 8 8 9 14 3 9v20l-3 15-2 7h-1v-8l3-8v-29l-6-12-7-8-5-6-12-7-16-3-11-6-11-7-12-6-25-5-3-1-19-1-21-3-20-6-16-4-12-2h-23l-1 1-20 1-16 4-23 9-30 11-9 3-33 1-7 7-8 13-1-2 6-11 7-8 5-3 28-1 15-4 57-21 6-1z" fill="#FEFEFE"/>
<path transform="translate(630,498)" d="m0 0h2v2l7-1 4-1 26 9 4 2 10 2 18 1 5 3v7h-15l-15-2-19-7-12-4h-16l-25 7h-4v-8l17-6 12-3z" fill="#FEFEFE"/>
<path transform="translate(1175,665)" d="m0 0 2 1-10 8-32 21-11 5h-4v2h7l2 1 10 1 2 1 13 1v8h-11l-1-1h-28l-5 5h-3v2l13 3 12 3 3 3-3 3-10-1-23-5-7-3 3-1 25 6 11 1-18-4-16-6-35-3-8-4-2-4 12-11 2-3 16 4 16 6 12 3v3l-9 6 10-2 6-5 6-1h8l14 2h8l-26-4-14-1-15-4-22-9-2-2 6 1 16 5 4 3 8 2h10v-4l13-3 19-11 17-12zm-109 31-9 9-3 2 1 5 6 2 18 1 6 1h13l6-8-12-3-21-8z" fill="#FEFEFE"/>
<path transform="translate(560,606)" d="m0 0h80l1 1h90l1-1h7l9 4v4h-27v-1l23-2-184-1v2l37 1 76 1 2 2-16 1-73 1v-2h-13l-2-1-13-1v-6z" fill="#FEFEFE"/>
<path transform="translate(1242,626)" d="m0 0h1v10l-3 24 1 8-1 11-2 10-5 10-2 8-11 21-5 7-7 3v-7l6-11 7-13 4-10 6-14 4-16 2-6 1-10 1-2 1-15-5 5-6 11-6 10-8 12-4 2-1-1v-8l6-10 6-11 7-11 3-2-2 5-7 11 1 1 6-8h2z" fill="#3A5266"/>
<path transform="translate(993,571)" d="m0 0 1 2-3 7-6 7-2 5-15 15-3 5-4 2-3 5-5 6-21 24-23 23h-5l1-5 7-9 10-11 7-9 12-13 9-11 9-9 5-7h2v-2l8-6 5-5 8-5z" fill="#42596C"/>
<path transform="translate(1060,746)" d="m0 0 8 1 2 1-2 5-5 5 4-2 7-5 4-2 3-1 16 6v3l3 2 3 1-2 4-3 3-2-1 3-3h-8l-12 9-1 4 10-5 5-3 2 1-10 7-6 2h-9l-10-2v-3l9-3 8-6 8-4h2v-2l-22 10-10 5-6 2-2 2-1-2h-17l-1-5 4-5 15-10zm1 2-12 7-12 9-3 2v2l7-1 12-7 13-9v-3zm11 6-5 4-14 9-3 1v2h7l4-3 10-4 13-6-3-3z" fill="#4D6375"/>
<path transform="translate(764,674)" d="m0 0 8 6 7 6 16 9 15 6 37 9 2 1-1 4-4 13v12l4 12 2 5h2l-4-15v-13l3-12 2-4 9 1 14 2 13 1 37 1 29 2 14 1h36l12-3h3l1 10v12l-3-3v-5-4-7l-11 3-11 1-2 1h-8v-2h-34l-1-1-45-1-1-1-30-1-17-3h-4l-3 8v21l3 7-1 5-4 2-5-9-4-20 5-16 1-3-10-1-28-7-13-5-16-9-11-9-4-5z" fill="#FEFEFE"/>
<path transform="translate(988,176)" d="m0 0v3l-5 5-4 10-2 9v7l3 7 6 8 2 2 6 1-9-12-3-6v-11l3-7 1 3-1 2v14l8 11 3 3-1 5h-9l-9-13-2-4-4 1-4 4-2 4-5 3-3 3-15 1-10 3h-6l-1 4-5 6 11 2 2 1 20 1 1 1 13 1 4 1-1-9h5l3 4-6-3 6 12-21-3-32-4-7-2v-4l6-7-1-4 3-1v3l22-6 7 1 8-7 8-8 3-7-8 5-13 13-11 4-7 1v-3l7-3-15 1-7 1-3-3 2-8 6-5 22-11 18-10 16-8zm-9 6-12 5-13 7-15 9-16 8-3 3v6h11l1-1 9-1 9-4v4l4-1 5-5 10-8 7-3 2-10 2-9z" fill="#FEFEFE"/>
<path transform="translate(1287,755)" d="m0 0 1 4-7 9-7 6-9 6-1 12-3 9-3 8-2 3h-2v5l-5 5-4 2-1 9-3 6-3 14-5 5h-3v-9l4-16 2-5-38 12-10 2-16 1-1 1-22 1 1-5 36-2 18-4 33-11 11-5h2l1-3-9 1-22 8-5 1 4-4 18-7 8-3 3-1 7-21h1l-1 8-4 11 5-2 3-8 4-20 10-7 8-7z" fill="#FEFEFE"/>
<path transform="translate(1310,288)" d="m0 0h19l8 3h7l8-3h42l2 3-1 5-2 2-37 1-1 1h-24l-2-1-23-1-2-4 5-5z" fill="#FEFEFE"/>
<path transform="translate(496,509)" d="m0 0h16l13 4 20 8 16 4 9 1 27 1 22 3 20 3 13 1 4 2-4 2h-21l-27-5h-19l-29-3-27-9-15-6-9-2-13 1-15 4-16 6-4-1 16-8 17-5z" fill="#395266"/>
<path transform="translate(582,416)" d="m0 0h15l16 5h23l8-3 8-2h14l17 8 16 10 7 3 12 2 12 1v7l-5 3h-19l-16-8-11-7-8-4-6-2h-16l-12 3-13 1-2 1-17-3-6-2h-19l-2 1h-8l1-5 4-6zm6 2-13 4-2 2v5l9-3 8-1 12 3 11 3h16l15-3 12-3 11 2 16 8 14 8 8 3 6 1h12l6-3v-1l-25-5-16-8-17-9-7-2h-11l-19 5-6 1h-8l-28-7z" fill="#FEFEFE"/>
<path transform="translate(1315,350)" d="m0 0h27l6 3 9 1 8 3 15 1 1 1 19 1 4 5v3h-23l-20-3-17-4-5-2h-20l-12 3h-7v-8z" fill="#FEFEFE"/>
<path transform="translate(620,358)" d="m0 0h32l1 1 23 1 2 3-1 5-4 2h-20l-10-3h-11l-1 1-18 1-7 1h-2-8l-1-1h-6l-3 1v-7l2-3 30-1z" fill="#FDFDFD"/>
<path transform="translate(1044,491)" d="m0 0 4 4 1 2 1-2 4 2 14 11 18 13 3 3-12 27-5 12-3 9-5 12-6 11-10 11-8 4h-5l4-2 2-5 9-8 7-11 7-18 8-20 6-14 1-7-13-11-9-7-14-12z" fill="#385164"/>
<path transform="translate(649,769)" d="m0 0h22l-1 3-3 1-22 1-54 1h58l3 2-7 2h-80l-19-3-2-4 1-1z" fill="#3B5468"/>
<path transform="translate(1071,568)" d="m0 0 3 1 5 6 13 8 12 5 21 5 31 3h32l20-4 15-6 8-6-2 5-8 7-10 5-11 3-16 2h-30l-23-2-28-6-13-5-10-6-7-8z" fill="#263E52"/>
<path transform="translate(544,773)" d="m0 0 2 1v2l14 1 5 1h80l7-1 20 1v-2h-98v-1l17-1 54-1h29v8l-30 1-78 1-1 3 41-1h70v1h-32v2h-80l-2-7-11-1-7-3z" fill="#FEFEFE"/>
<path transform="translate(912,812)" d="m0 0 7 1 10 4 12 4 8 2 27 1 1 1h8l1-1h10v5l-3 3-8 2-15 1-1 1h-5v-2h-16l-13-4-12-5-11-7z" fill="#FEFEFE"/>
<path transform="translate(696,634)" d="m0 0h2v40h2v32h2l1 54 6 1 1-1h20l1 1 17 1 1 1 35 1 1 1 12 1 3 2-1 4-2 2h-42l-2-1-16-1-4-1-17-1v2l-4-1v-3l1-1h17l14 2 15 1 39 1v-2l-10-1-43-2-18-2-26-1-1-1-1-54-2-22-1-25z" fill="#FEFEFE"/>
<path transform="translate(1082,596)" d="m0 0 9 3 13 6 14 4 15 1 2 1 47 1-1 4-2 2h-21v2h-30l-19-4-16-7-13-7 1-5z" fill="#5C7081"/>
<path transform="translate(1021,371)" d="m0 0v3l-14 20-14 19-6 9-14 19-12 16-13 16-10 13-14 18-8 10-9 11-11 13-8 10-9 11-12 14-11 12-13 14-8 7-8 8-11 9-10 7-4 2h-12v2l6 2 8-1 10-5 11-9 4-2-6 7-7 6-9 6-7 2h-7l-5-5v-5l2-2 4 1h7l7-3 14-11 9-8 4-5 5-5 13-12 11-12 9-11 6-7 9-11 12-14 11-13 8-10 9-12 9-11 8-11 8-10 9-12 9-11 6-8 6-9 9-13 11-15 7-10 7-9z" fill="#FEFEFE"/>
<path transform="translate(679,620)" d="m0 0h1v18l4 1 3 2 1-18h1l1 5 1 14 2 9 1 9v14h-2l3 5 1 33v46h-2v2h2v4h-3l-3-65-3-55-3 1 3 47 2 40 1 32-2 2h-8v-2h8l-1-31-1-1-1-31-1-1-1-39-1-1v-10h-2v5h-1zm13 60v38h2v-38z" fill="#FEFEFE"/>
<path transform="translate(764,664)" d="m0 0 7 6 10 9 10 6 20 8 25 7 15 3 14 4 11 2 24 1 1 1 39 1 1 1 31 1v2l23-1 1-1 15-1 6-4 2-4v-8l-1-2v-8l2 4 2 13-2 8-8 4-12 2h-34l-35-2-42-2-18-2-25-6-29-8-15-5-16-8-10-7-12-12z" fill="#FDFDFD"/>
<path transform="translate(1092,628)" d="m0 0 27 9 13 2h23l1-1 17-1 1-1 25-1 1-1h8l2 5-2 1v-3l-56 5h-20l-16-3-22-7h-3v2l15 6 16 5 7 1h22l45-4 2 1-12 10-19 12-20 14-16 10-12 7-1-3 15-8 25-17 11-8 9-6 9-5 2-2h-17l-1 1-19 1-1 1h-19l-17-3-22-8-5-3v-5z" fill="#FEFEFE"/>
<path transform="translate(750,623)" d="m0 0h2l-1 10-4 19-1 17 3 3 1-18 2-4v6h7l5 6-1 2-6-6 1 6 6 9-2 1-9-13v12l10 19 10 14 9 11v7l-4-1-13-13-7-9-6-12-2-7h-2l2 4v16h-1l-2-14-1-1-1-13-1 23-4-2 2-1v-20l1-1 1-20 1-2 1-10 4-15-2-1z" fill="#395266"/>
<path transform="translate(1438,312)" d="m0 0h32l2 1 9 1 17 5 16 1v5l-3 3-6 2-10-1-20-6-33-1-6-4 1-5z" fill="#FEFEFE"/>
<path transform="translate(754,610)" d="m0 0 3 1-2 9-2 6-1-3-5 5-6 7-12 24-2 8v9l7 9 6 7-1 2-7-8v3 3l-8-8 6 7 12 12 10 15-1 2-7-9-9-11-13-13-2-4-1-14 2-10 5-15 7-12 5-6 11-8 2-5z" fill="#3B5467"/>
<path transform="translate(1132,572)" d="m0 0h7l18 5 57 1v6l-6 2-8 1-1 1h-27l-1-1-18-1-16-6-5-4z" fill="#FEFEFE"/>
<path transform="translate(651,81)" d="m0 0h14l4 2-3 1-43 4-58 7-49 8-51 10h-7l1-2 25-6 47-9 58-9 38-4z" fill="#263E51"/>
<path transform="translate(982,564)" d="m0 0v3l-7 8-16 17-14 13-6 7-7 5-5 3-14 12-13 10-15 10-10 7-11 6 2-4 14-11 16-13 16-12 13-11 11-9 7-7 8-7 12-11 7-8 6-7 2 1-4 6-13 13 2 1 2-4 11-11z" fill="#3E5568"/>
<path transform="translate(995,248)" d="m0 0 5 5 8 6 24 13 26 9 10 9 7 7 9 14 2 4v4l-3-1v-2h-2l1 5-2-2-6-12-8-10-7-7-10-5-15-4-12-6-13-8-8-4-10-3 2-2h3v-2l2-1-3-4z" fill="#374F63"/>
<path transform="translate(605,67)" d="m0 0h9v1h-5l1 1 10-1 8 1v1l-40 5-74 11-44 8-12 1v-3l29-6 51-9 59-9z" fill="#263E51"/>
<path transform="translate(913,517)" d="m0 0 2 1-10 13-11 13-10 11-4 6 1 4-9 10-7 8-30 30-5 6-5 3-11 9-10 5-8 1-6-3v-2l12-1 12-7 11-10 8-7 8-8 8-7 7-8 7-7 9-11 9-10 8-10 18-22z" fill="#395266"/>
<path transform="translate(1128,243)" d="m0 0 5 3 1 22 5 10 8 7 22 13 15 11 7 10 7 18 1 7h2v-7l8 6 9 8 16 8-3 1-7-2v-2l-2-1-22-1-13 4h-11l-12-3-12-5-4-2 4 5 6 3v1l-8-1-9-5-5-5 1-2 8 5 1-5 5 1 12 6 5 2 10 1h4l13-1 4-2-4-16-5-12-5-9-5-5-9-6-16-10-12-7-6-5-5-10-1-24h-3zm80 105v2l2-1zm2 2 1 2h2v-2z" fill="#FEFEFE"/>
<path transform="translate(858,776)" d="m0 0 2 2 4 11 6 10 4 5v2l6 2 12 7 2 3h-7l-6-3-8-7-1 8-5 24-1 19-2 5-4-1-2-2v-14l1-2 1-10 5-20 2-4-1-4-10-16-1-10z" fill="#385165"/>
<path transform="translate(845,526)" d="m0 0h5l-1 5-7 8-31 31-20 14h-5v-5l2-3h2v-2l11-8 12-11 3-1v-2h2l2-4 18-18z" fill="#344D60"/>
<path transform="translate(768,377)" d="m0 0 14 7 5 6 2 5v17l-2 23v25l1 13v19l-1 36-3 15-8 16-6 14-4 11-4 6-6 8-5 18-4 5-9 6-9 13-5 12-3 10-1 12v5l-2-2v-14l3-8 3-12 9-14 8-8 6-4 4-10 2-10 8-10 6-12 6-16 8-16 2-6 1-39 1-1 1-27h-2v-38h2v-22l1-1v-10l-4-10-15-10z" fill="#FEFEFE"/>
<path transform="translate(1312,618)" d="m0 0h18l47 4 58 7 53 6 14 3v2l-21-1-68-8-28-4-32-3-41-3z" fill="#273F52"/>
<path transform="translate(1020,770)" d="m0 0 3 1 4 7 18 7-4 1-12-4 5 5 9 6 10 6 12 3 8 3 8 2v3l-6 1-10-2-22-9-10-4-14-9-1 13-1 1-1 22-1 2-1 10-1 1-1 8h-2v9l-1 1-1 8h-7l-1-1v-6l3-6 1 4-2 7 3-1 4-16 4-24 5-44zm0 4v3l5 2z" fill="#FEFEFE"/>
<path transform="translate(1279,390)" d="m0 0h1l2 7 5 6 21 42 8 20 4 14v16l-5 9-8 8-1 46h2v42h-2v-31l-2-19-2-32-2-1-1 19v12l1 7v9h-2l-1-15-1-1v-18l1-1 1-9-16 8-15 3-6 3-4 9-1-3 5-10 24-7 11-6 9-7 6-5 6-9 1-3v-10l-6-20-11-26-8-17-11-19-5-6z" fill="#FEFEFE"/>
<path transform="translate(560,610)" d="m0 0h185l-1 2-23 2h-20l-12-1-17 1h-75l-26-1-11-1z" fill="#253D50"/>
<path transform="translate(1254,557)" d="m0 0 3 4 3 10v11h2l1 27 1 1v57l-1 2v28l1 1 1 21 1 1 1 47 6-4 6-8 3-11v-4l-1-9-3-12v-17l1-1 1-9 3-7 4-16 3-16 3-10 1-7 2-1-1 10-9 37-6 26v7l5 24-1 9-4 10-7 9-8 5h-1v-37l-2-24-2-18v-19l2-28v-15l-2-35-3-26-3-10z" fill="#FEFEFE"/>
<path transform="translate(1045,209)" d="m0 0 2 3 1 8 8-1 4-6 3 1 4 6v3h2l5 6 3 6 6 4v2h3l1 4h-5l-1 1-1 16h-6l-1-23-8 6-5 6 1 4 2 3-1 14-3 5-3-1-1-21-1-4 4-9 4-4h2l1-3v-12l-1-5-9 4h-6l-3-3-2-4z" fill="#506678"/>
<path transform="translate(1065,166)" d="m0 0h1v9l-3 14-2 3h-15l-21-5-25-9-5-3 2-4 24 4h33l4-1 3-6zm-39 16 1 4 8 2 6 2h17l1-4-1-4z" fill="#3A5367"/>
<path transform="translate(1250,556)" d="m0 0 4 1 4 13 3 26 2 35v15l-2 4-1-28-5-5-6 2-2 4-1 6-2-4h-2l-2 5-8 11-3 1-5 8-2-1 2-5 10-16 7-10 5-9 2 2 8 1 1-14h-2l-3-27-3-7 1-3v-3z" fill="#263E51"/>
<path transform="translate(877,219)" d="m0 0h21v1l-47 3h49l-4 2-62 2-47 2h-47v-1l23-1 4-1-12-1 3-2 66-1z" fill="#3D5669"/>
<path transform="translate(986,170)" d="m0 0h10l2 4-2 1 12 5-2 5h-4l3 6 1 7-2 2-12-16-3 2-2 6h-2l-2 7v11l5 9 6 7v2h-6l-8-9-3-5-1-4v-7l4-15 5-8 3-3h-6l5-5z" fill="#263E51"/>
<path transform="translate(913,373)" d="m0 0 2 1-29 29-7 8-9 10-15 20-10 14-11 17-4-1 2-6 12-19 9-12 3-7 9-8 9-11 13-13 5-2 2-4 9-9z" fill="#435B6D"/>
<path transform="translate(969,764)" d="m0 0 2 1-12 6-22 7-17 3 8 1h28l21-3 12-3 3 1-12 5-20 4-13 1-26-1-17-3-24-5 4-2 16 3h5l1-3 29-3 31-8z" fill="#274053"/>
<path transform="translate(1025,725)" d="m0 0 6 2 2 3-3 7 4-5 2-1 6 4 4 3 7 2 2 1-1 3v-2l-5-1-4 2-5 5-10 7-3 3h-3v2l12-6 3 1-15 9h-2v-8l-4 5-3 18h-1v-10l1-2 1-10 1-2 1-10 2-5 2-7h1l1-7zm2 3-1 3 3-1v-2zm7 6-4 7-2 3 5-2 6-4v-4z" fill="#556B7C"/>
<path transform="translate(1140,170)" d="m0 0h34l1 1 10 2 15 8 6 5v2h2l8 10 8 13 6 12 3 15 1 1v25l-2 1v-18l-3-16-6-15-9-16-8-10-9-7-13-6-12-3h-29l-15 3-10 5-14 11-4 2h-12l-24-5-1-1v-6l2 4 6 2 10 2h20l6-4 5-5 11-7 7-3 9-1z" fill="#FEFEFE"/>
<path transform="translate(1070,568)" d="m0 0 2 2 4 8 8 7 13 6 14 4 20 4 23 2h30l21-3 8-3h3v2l-14 5-12 1-1 1h-38l-4-1-14-1-26-5-18-6-10-6-9-9-2 3-6 14-3 3-1 19-2 1v-11l-1-1-6 21h-1v-8l3-6 1-5-13 6-7 2h-10l2 7v23l-2 1-1-23-1-10h9l13-4 8-5 7-8 9-17z" fill="#FEFEFE"/>
<path transform="translate(1229,244)" d="m0 0h1l1 6 2-3v13l-1 11-4 6-7 9-2 4 9 9 28 20 12 11 10 13 2 4 1 10 1 1v29l-2 2-1-30-3-12-6-10-11-12-18-14-15-10-8-8-1-4h-2l-2 4h-2l-3-5-2-2 4-2 6-4 6-7 5-12 1-3z" fill="#475E70"/>
<path transform="translate(989,464)" d="m0 0h3v7l-7 11-6 8-3 5-4 6-3 3-3 5-7 9-12 14-3 5-7 9-11 11v-3l10-11 7-9h-3l2-5 12-13v3l5-5 12-16v-1l-8 9h-3l-3 1 2-4 8-10 7-10 6-9 7-9z" fill="#465E70"/>
<path transform="translate(1344,450)" d="m0 0h19l25 7 22 6 19 3 21 2-1 2-3 1h-22l-14-2-26-7-21-6h-19l-10 2v-3l6-4z" fill="#273F53"/>
<path transform="translate(1314,603)" d="m0 0 53 4 36 4 45 7 37 5 7 2v1h-14l-49-7-33-5-43-4-36-3-3-1z" fill="#273F52"/>
<path transform="translate(619,596)" d="m0 0h127l-2 2-8 1-30 1-121 1-13-1 1-2 6-1z" fill="#263E51"/>
<path transform="translate(1257,694)" d="m0 0 3 2 2 6 2 18 1 15v36l6-1 8-6 3-2-2 4-8 7-8 5-5 24-3 5-5 1 3-11 3-14 3-29v-25l-2-21-1-5z" fill="#395266"/>
<path transform="translate(907,334)" d="m0 0 3 2-1 5-10 8-16 11-6 5-8 7-12 12-3 5-5 6-8 10-10 16-6 9-5-1v-6l8-15 10-14 13-16 11-12 13-12 13-10zm-1 4-9 4-11 7-13 10-15 14-10 11-13 17-9 14-3 7-1 6 3-1 12-19 12-16 11-13 15-15 14-11 17-12 2-3z" fill="#FEFEFE"/>
<path transform="translate(1096,755)" d="m0 0 7 1 19 6 26 6 1 2-9 3-7 2-11 8-7 4-7 1-12-4 4-1 8 2 11-6 10-8-3-2-10-4h-8l-14 10-3 3-7 2-7-1 2-2 8-3 7-5 1-2 5-3 3-4-7-1-1-3z" fill="#294154"/>
<path transform="translate(994,539)" d="m0 0v3l-7 11-9 11-12 13-9 10-12 11-8 7-10 9-11 9-18 14-14 11-16 13-3 3 16-10 14-10 10-7 16-13 8-7 2 1-12 12-8 6-13 10-10 7-15 10-8 5h-3v-8l13-9 6-4 9-7 15-12 14-11 7-6h2l1-3 8-7 14-12 5-5h2v-2h2v-2h2l2-4 7-7 11-14 7-9z" fill="#FEFEFE"/>
<path transform="translate(666,618)" d="m0 0h8l1 1v25l1 28v24l3-1 1-23h2v46h-2v-15l-3 1-1 19-1 43h-1v-62l1-5-1-1-1-49-1-1v-28h-6v2h-66v2l-11-1-5 1 1-5 2 1h33l30-1z" fill="#FEFEFE"/>
<path transform="translate(602,876)" d="m0 0h34l4 1h10l4 2h11l9 1 4 1 5 1v1h-14l-9-1h-24l-46 1-31 2v-3l7-2z" fill="#263E51"/>
<path transform="translate(680,854)" d="m0 0 2 1 1 7v16h8l1-16h1v16h3l1-3v5l16 2 14 3 1 2-2 3-13-1-24-4-10-1-2-2-12-2h-11l-7-1v-1h-15l4-2h17l26 1v-18z" fill="#395266"/>
<path transform="translate(1218,327)" d="m0 0 9 6 14 11 7 5 5 8 6 18 6 10 10 15 9 14 8 16 12 26 8 21 2 11-3 9-8 9-10 8-12 6-18 5h-2l2-4 11-11-2 5-4 5 9-1 11-5 11-8 5-5 6-8 1-2v-10l-8-20-5-10-4-10-4-8-4-10-8-14-12-17-10-17-5-16-5-7v-2l-5-2-10-9-5-3v-2l-5-2-3-2z" fill="#FEFEFE"/>
<path transform="translate(916,58)" d="m0 0h15v1l-18 2-1 1-10 1h-9v2h-5l-1 4-1-2-2 1-2-2-45 4h-22l-1 1h-5l-1-4 4-1 73-6z" fill="#3A5367"/>
<path transform="translate(740,77)" d="m0 0h6l6 9 4 11v11l-4 10-7 16-4 17-11 55-1 7h-1v-13l1-1 1-11 1-1 3-16 1-2 1-10 1-2 1-9 1-1 2-10 5-13 5-11 2-6v-11l-3-7-2-5-2-4-3 1 6 11 1 5-3 3-4-1-5-3-8-11v-3l-19 1-2 1h-9v5l-2-2-1-6 26-2h6l9 12 5 5 3 1-1-5-6-11z" fill="#FEFEFE"/>
<path transform="translate(986,166)" d="m0 0h7l18 5 8 2h32l7-3 3-2-2 6-5 2h-33l-25-5h-12l-12 5-34 18-17 7h-14l-11-3-3-4 2-4 10-6 8-4 3 1-18 10-1 4 3 2h25l15-7 11-6 16-9 8-5 10-3z" fill="#FEFEFE"/>
<path transform="translate(1215,289)" d="m0 0h2l4 6 9 8 12 8 13 10 10 9 9 11 2 6-5-5-1-3h-2l-7-8-3-2 7 7 6 8 4 9 1 7-2-2-5-12-7-9-11-11-18-13-11-8-6-4-4-7 1-2z" fill="#263E51"/>
<path transform="translate(898,218)" d="m0 0 4 1 2 6-3 3-59 1-1 1h-57l3-2 47-2 62-2h-53v-1l22-2 21-1h12z" fill="#FEFEFE"/>
<path transform="translate(1510,262)" d="m0 0h38v9l-3 3h-31l-5-3-1-6z" fill="#FEFEFE"/>
<path transform="translate(1196,644)" d="m0 0 2 1-2 3v3l-15 11-25 17-15 10-13 7-10 1 2-3 11-6 11-7 36-24 13-9z" fill="#273F52"/>
<path transform="translate(1e3 113)" d="m0 0h3 6l17 8 17 10 12 11 8 11-2 4-15-15-11-8-14-8-16-6-7-2-2-4z" fill="#273F52"/>
<path transform="translate(777,739)" d="m0 0 4 2 13 8 12 6 23 7 33 7 28 6 15 2v2l2 1h-7l-17-3-5 1-23-4-19-5 1-2-14-4-19-6-6-1-11-6-4-3v-3l-6-3z" fill="#3D5569"/>
<path transform="translate(1112,313)" d="m0 0 2 1-4 5-3 2-4 1 1 8 3 11v4l14-1-1 5-15 7-10 4-7 1 6-7 7-6v-8l-5-14-1-3h-2l-1-3 2-2 10-1z" fill="#4E6476"/>
<path transform="translate(1072,238)" d="m0 0 2 1v16l-2-2v-11l-8 7-1 4 1 1v19l-3 5 2 4 13 13 10 16 2 4v10h-1l-2-10-6-11-8-10-10-10-8-4-21-7-17-9-13-8-6-6 1-2 8 7 15 8 10 5 11 5 13 3 1-7h1l1 7 2 1 2-5 1-14-3-4 1-5z" fill="#FEFEFE"/>
<path transform="translate(707,763)" d="m0 0h20l18 2 43 2 10 2v2l-10 1-29-1-25-2-4-1h-17v3l3 2-5 1-8-2v-2l-2-1 3-1v-2l8-1-5-1z" fill="#3A5367"/>
<path transform="translate(1078,748)" d="m0 0 5 1 14 5v3l3 2 3 1-2 4-3 3-2-1 3-3h-8l-12 9-1 4 10-5 5-3 2 1-10 7-6 2h-9l-10-2v-3l9-3 8-6 8-4h2l-1-4-9-4z" fill="#3A5367"/>
<path transform="translate(1034,488)" d="m0 0 4 2 14 12 12 10 10 8 6 5-2 10-9 20-10 27-6 10-9 10-8 6-6 2h-9l-2-9-1-8v-12l2 1 1 17 1 7 13-1 12-9 8-11 6-16 8-20 7-16 1-6-5-5-16-13-7-7-12-9-3-1v5l-2 1 1-8z" fill="#FEFEFE"/>
<path transform="translate(756,657)" d="m0 0 7 6 9 10 9 8 14 8 9 4v2l9 3 11 4v2l-10-1-17-6-15-8-9-7-10-9-6-9z" fill="#364F63"/>
<path transform="translate(1032,702)" d="m0 0 3 2v2h8l4 6 7 1 7 2 19 2 16 1 16 6 18 4 1 2-12-1-25-6-9-2-19-1 13 6 14 5v1l-9-1-19-7-16-8-11-7-5-3z" fill="#263E51"/>
<path transform="translate(1094,566)" d="m0 0 5 1 15 11 15 7 30 7 2 3-16-1-13-2-15-4-10-6-10-7-3-5z" fill="#284054"/>
<path transform="translate(633,501)" d="m0 0h12l15 5 14 5 20 4 11 2v1l-8 1-20-2-30-10-5-1h-11l-28 7-3-1 18-8z" fill="#294155"/>
<path transform="translate(1013,779)" d="m0 0h1v14l2 2-2 24-4 24-4 16-4 1 2-21 1-2 1-10 1-2 1-20 1-2 1-10 1-2 1-11z" fill="#596E7E"/>
<path transform="translate(496,509)" d="m0 0h16l13 4 18 7 1 4 14 4 8 1v1h-10l-27-9-15-6-9-2-13 1-15 4-16 6-4-1 16-8 17-5z" fill="#273F53"/>
<path transform="translate(923,558)" d="m0 0v3l-11 12-16 14-51 51-8 6-8 7-6 3h-3l1-7 11-11 10-8 4-4 2 1-15 15-6 5-4 5 11-7 14-12 16-15 7-8 19-19 8-7 18-18z" fill="#FEFEFE"/>
<path transform="translate(1020,717)" d="m0 0 3 2v2l10 3 18 11 8 4 7 3 12 5 1 3-8 4-6 5-3-1 5-5 3-5-10-1h-2v-2l-3 1v-5l-11-2-4-5-5-2-4 6-2-1 3-8-5-3h-2l-1 14h-1l-1-6h-1l-1-12z" fill="#263F52"/>
<path transform="translate(1080,450)" d="m0 0 3 1 3 10 1 14 1 2v12h-1l-5-30v-5h-2l1 20 3 20 4 18 3 6v3l2 1-10 19-4 10-6 12-1-3 11-24 4-10v-3l-16-12-14-11-1-2 5 2 11 9 15 9-3-11-3-16-1-1-1-15-1-2v-21z" fill="#FEFEFE"/>
<path transform="translate(676,617)" d="m0 0h7l-3 3v75l-4 1-2-52v-14l1-12z" fill="#294154"/>
<path transform="translate(1242,626)" d="m0 0h1v10l-2 16-2 9h-1v-10l1-2 1-15-5 5-6 11-6 10-8 12-4 2-1-1v-8l6-10 6-11 7-11 3-2-2 5-7 11 1 1 6-8h2z" fill="#3B5468"/>
<path transform="translate(634,766)" d="m0 0h22l1 1h8l1-1h8l-1 2-3 1-21 1-105 2v-4l89-1z" fill="#FEFEFE"/>
<path transform="translate(1281,447)" d="m0 0h1l2 7 4 5v18l-1 1-1 7-1 1-2 9-5 12-4 3 2-5 6-16 3-13 1-13-2-6h-2v11l-4 19-6 15-8 15-1-2 8-29 6-24 3-14zm-3 15-3 17-3 10v5l2-1 4-15 2-9v-7zm-8 34v2h2v-2z" fill="#FEFEFE"/>
<path transform="translate(914,814)" d="m0 0 27 9 14 3 12 1h28l-1 2-8 2-10 1h-19l-17-3-15-6-9-5z" fill="#263E51"/>
<path transform="translate(1075,365)" d="m0 0 1 3-6 18-10 23-16 34-9 24-6 21-9 34-4 17-3 26h-1v-20l1-2 1-10 5-17 4-13 2-10 2-6 2-10 4-14 7-16 5-12 10-21 7-16 5-11 4-10 2-8z" fill="#FEFEFE"/>
<path transform="translate(1018,825)" d="m0 0 9 3 5 2 27 1 8 3v2l5 2 6 3-4 1-16-5-6-1-20-1-3-1 2 12v10l-2 3h-2l-1-5-1-19-1-4-4-2z" fill="#385165"/>
<path transform="translate(512,230)" d="m0 0h75l6 2v1l-8 1-23 1h-33l-17-1z" fill="#243C4F"/>
<path transform="translate(883,716)" d="m0 0h45l75 2-2 4h-32l-24-2-19-1-37-1-6-1z" fill="#2B4357"/>
<path transform="translate(631,360)" d="m0 0h13l21 3 11 1-1 2-6 2h-9l-19-3h-8l-6 1-39 1v-3l2-1 28-1z" fill="#354E62"/>
<path transform="translate(759,602)" d="m0 0h1v17l-1 1-1 11-3 9-2 9-2 5-1 18h-3l-1-1h-1v-9l2-16 4-18 4-11v-5l1-3z" fill="#546776"/>
<path transform="translate(845,526)" d="m0 0h5l-1 5-7 8-31 31-20 14h-5v-5l2-3h2v-2l11-8 12-11 3-1v-2h2l2-4 18-18zm0 3-11 8-19 19-8 7-10 9-8 7-1 2 6-2 12-8 14-12 24-24 3-4v-2z" fill="#FEFEFE"/>
<path transform="translate(995,248)" d="m0 0 5 5 8 6 24 13 6 3-1 4 9 3v1l-10-1-14-7-13-8-8-4-10-3 2-2h3v-2l2-1-3-4z" fill="#263E52"/>
<path transform="translate(1363,290)" d="m0 0 23 1 9 2-1 2h-27l-18 3h-15l-11-3h-16l4-3 4-1h12l12 3 8-1z" fill="#385064"/>
<path transform="translate(1019,781)" d="m0 0 6 2 13 9 5 1 10 6 12 3 8 3 8 2v3l-6 1-10-2-22-9-10-4-5-5-9-8z" fill="#FEFEFE"/>
<path transform="translate(1037,679)" d="m0 0 9 3 11 6 7 5-3 2-8 1-4-2 3 3 7 1-1 3h-6l-5 5-10 1-7-6 5-4 6-11v-3l-3-1-1 3zm9 7v2l12 6-1-5-7-3zm-6 10-2 2v4l3 2h6l3-6-2-2z" fill="#3E566A"/>
<path transform="translate(1134,573)" d="m0 0 20 5 24 2h34l-3 3-5 1-14 1h-18l-18-1-12-4-8-4z" fill="#273F52"/>
<path transform="translate(1321,353)" d="m0 0h19l30 7 27 3 4 2-4 1h-11l-20-2-28-7h-17l-14 2h-5v-2l12-3z" fill="#273F53"/>
<path transform="translate(1066,218)" d="m0 0 2 1v2h2v2l4 2 9 9 10 6 10 4 17 4 4 1v15h-1l-1-10-23-5-12-4-1-4h-3v-2l-4-2-5-5-3-5-2-4h-2z" fill="#263F52"/>
<path transform="translate(1128,291)" d="m0 0 2 2 4 8-1 4h-2l-2 3h-3l-2 5-7 7-10 4h-3l4 13v5h13l1 5-1-3-15 2-1-9-3-10v-5l7-3 4-5-9 4h-8l1-2 10-2 11-6 9-6 4-1-3-6z" fill="#82929E"/>
<path transform="translate(644,225)" d="m0 0h23v1l-17 2-26 1v1l4 2-9 1-34 1 3-2-1-1h-13l-21-1v-1l52-1z" fill="#3B5468"/>
<path transform="translate(986,182)" d="m0 0h2v9l-3 1-2 7v11l5 9 6 7v2h-6l-8-9-3-5-1-4v-7l4-15 2-4z" fill="#344D61"/>
<path transform="translate(1443,314)" d="m0 0h13l18 1 19 5 18 2 2 1-8 3h-9l-21-6-25-1-11-2-1-2z" fill="#294255"/>
<path transform="translate(784,278)" d="m0 0h6v9l-1 1-1 9-1 1-1 10-1 1-1 35h-1v-36l5-27-3 1-5 22-1 8-1 39-4-4-8-15-4-9 1-3 5 9 3 8 4 6 1-32 1-2 1-10 5-18z" fill="#FEFEFE"/>
<path transform="translate(1138,299)" d="m0 0 7 6 8 7 14 7 18 6-2 2h-12l-13-5-11-6-11-10v-2l3-3-2-1z" fill="#243C50"/>
<path transform="translate(649,769)" d="m0 0h22l-1 3-3 1h-21l-1-1-3 1h-94l1-2z" fill="#243C4F"/>
<path transform="translate(884,826)" d="m0 0 19 9 12 5 25 5 11 2v1l-5 1h-14l-16-3-12-4-9-5-9-7z" fill="#364F63"/>
<path transform="translate(751,650)" d="m0 0h1v6h7l5 6-1 2-6-6 1 6 6 9-2 1-9-13v12l10 19 10 14 9 11v7l-4-1-13-13-7-9-6-12 1-3 8 15 7 9 7 7 6 3-9-11-7-9-9-15-5-11z" fill="#FEFEFE"/>
<path transform="translate(1225,278)" d="m0 0v3l-6 7 2 4 7 7 28 20 12 11 10 13 2 4 1 10 1 1v29l-2 2-1-30-3-12-6-10-11-12-18-14-15-10-8-8-1-6 7-8z" fill="#FEFEFE"/>
<path transform="translate(985,54)" d="m0 0h10v1l-8 1h-16v2l-6 1 1 3-4 3-1-4h-15l-39 3h-14v-1l19-2 3-1 16-2 3-1 30-2z" fill="#2A4256"/>
<path transform="translate(960,74)" d="m0 0 1 2-6 12-9 12-5 15-4 18-8 19-6 21h-7l-3-12-1-13 2 1 1 10 3 8h2l7-16 8-20 3-16 3-10 4-9 8-10z" fill="#FEFEFE"/>
<path transform="translate(605,775)" d="m0 0h44l3 2-7 2h-80l-1-2 32-1z" fill="#294255"/>
<path transform="translate(1246,609)" d="m0 0 2 2 7 1 4 1 1 3-3 3-2-2-6 2-2 4-1 6-2-4h-2l-2 5-8 11-3 1-5 8-2-1 2-5 10-16 7-10z" fill="#253D50"/>
<path transform="translate(792,466)" d="m0 0h2v57l-1 1-1 15-3 8-4 10-6 12-5 16-5 8-7 8-2 1 2-5 7-9 4-10 5-13 8-17 3-9 3-28z" fill="#FEFEFE"/>
<path transform="translate(1131,313)" d="m0 0 1 3-2 11v16l3 6 1 3 4 2 10 6 11 4 11 1 11-2 25-5 17 1-2 3-3-1h-9l-2 1-12 1-17 4-3 1h-12l-14-4-11-7-5-4-5-8v-26z" fill="#FEFEFE"/>
<path transform="translate(969,764)" d="m0 0 2 1-12 6-22 7-12 2-21 1 2-5 29-3 31-8z" fill="#3A5366"/>
<path transform="translate(1082,599)" d="m0 0 10 3 16 6 21 5v2l25 1-4 2h-19l-16-2-15-5-7-2-3-3-8-6z" fill="#2D4558"/>
<path transform="translate(934,67)" d="m0 0 13 2-1 4-11 9-6 8-6 9-3-1 1-7 11-19z" fill="#395266"/>
<path transform="translate(1237,661)" d="m0 0h1l-1 9-6 19-10 24-9 16v1l4-3 1 1 10-19 6-15 1 3-3 10-11 21-5 7-7 3v-7l6-11 7-13 4-10 6-14 4-16z" fill="#FEFEFE"/>
<path transform="translate(601,617)" d="m0 0h71v1l-6 1-16 1-30 1h-33l-1-3z" fill="#284154"/>
<path transform="translate(921,516)" d="m0 0v3l-24 30-7 8-12 14-9 11-30 30-5 2 6-7 30-30 9-11 10-11 9-11 13-16 8-10z" fill="#FEFEFE"/>
<path transform="translate(1282,410)" d="m0 0 3 3 8 15 12 26 10 28v11l-5 9-8 7 5-3 4-5h2l-2 5-12 10h-2l1-4-2-1 11-10 5-8 1-8-5-17-11-25-11-24-4-7z" fill="#273F52"/>
<path transform="translate(686,82)" d="m0 0 5 1 10 18 6 2-2-4-1-3h2l4 5-1 10 3 6 2 6v5h2v17l-3 7-1-3 1-4v-15l-4-12-7-11-6-7-7-6-4-8zm2 2v5l4 5h2v2h2l-2-5-5-7z" fill="#FEFEFE"/>
<path transform="translate(1043,781)" d="m0 0 5 1 15 6 28 8 15 3 2 1v2h-10l-31-7-20-7-2-2 9 2 5 1-11-4z" fill="#9CA7B1"/>
<path transform="translate(982,564)" d="m0 0v3l-7 8-16 17-15 14-4 3-2-1 7-7 7-6-8 6-6 5-2-1 7-7 8-7 12-11 7-8 6-7 2 1-4 6-13 13 2 1 2-4 11-11z" fill="#263E51"/>
<path transform="translate(1218,302)" d="m0 0 5 3 17 12 13 10 13 13 7 12 2 6v24h-2l-4-11-10-16v-3l7 8 7 13v-14l-4-10-5-7v-2h-2l-7-8-9-7-17-12-11-9z" fill="#FEFEFE"/>
<path transform="translate(677,363)" d="m0 0 1 4-5 3h-20l-10-3h-11l-1 1-18 1-7 1h-2-8l-7-2 1-2 37-1 6-1h8l19 3h9l7-3z" fill="#FEFEFE"/>
<path transform="translate(1137,248)" d="m0 0 5 2 15 9 24 14 16 9 12 6 7 10-1 2-7-9-24-13-8-4-20-11-11-8-4-2-2 7h-1z" fill="#FEFEFE"/>
<path transform="translate(1201,333)" d="m0 0 4 2 20 13 10 5 1 4 1 3 4 4-2 3-3-5-5-4-14-7-14-12z" fill="#273F52"/>
<path transform="translate(959,614)" d="m0 0 1 3-28 32-23 23h-5l1-5 7-9 10-11 7-9 5-4-2 4-12 14-11 14-1 3 8-7 11-11 8-10 12-13 7-8z" fill="#FEFEFE"/>
<path transform="translate(869,811)" d="m0 0 3 2-2 12-5 27-2 10-3-1v-12l4-24 4-13z" fill="#385165"/>
<path transform="translate(1082,596)" d="m0 0 9 3 13 6 14 4 15 1 2 1 47 1-1 4-1-2h-46l-18-3-16-5-17-6 10 7-2 1-11-6 1-5z" fill="#FEFEFE"/>
<path transform="translate(972,494)" d="m0 0 1 2-8 11-10 13-2 1v-3l-10 11-2 4 3-1-2 5-6 5v-3l-5 4-4 3 2-5 11-12 8-10 10-13 4-2h2z" fill="#2D4659"/>
<path transform="translate(1300,517)" d="m0 0 3 1 2 32v12h-2l-1 5-2-3-2-16v-12z" fill="#2C4558"/>
<path transform="translate(1255,616)" d="m0 0 2 1v2l3 1 1 2 1 40h-1l-1-6-2 3-1 10h-2l-1-9h2v-18-4l1-7-1-1v-12l-5 2-3-1 2-2z" fill="#445C6F"/>
<path transform="translate(1044,491)" d="m0 0 4 4 1 2 1-2 4 2 14 11 8 6 2 4-4-2-4-1 6 4 1 2 4 2 3 4-1 3h-3l-2-6-16-13-11-9-8-7z" fill="#253D51"/>
<path transform="translate(751,675)" d="m0 0 3 4 8 15 10 14 9 10v2l-4-1-8-7-7-8-8-14-4-9v-5z" fill="#294255"/>
<path transform="translate(853,432)" d="m0 0v3l-10 14-11 18-2 4 5-2 5-6 1 2-8 13-6 8-5-2 3-9 9-17 15-22z" fill="#FBFBFB"/>
<path transform="translate(975,492)" d="m0 0 1 3-4 6-3 3-3 5-7 9-12 14-3 5-7 9-11 11v-3l10-11 7-9h-3l2-5 12-13v3l5-5 12-16z" fill="#5F7382"/>
<path transform="translate(1171,664)" d="m0 0 2 1-14 10v2l-15 10-16 9-10 1 2-3 11-6 14-7 21-14z" fill="#354E62"/>
<path transform="translate(684,771)" d="m0 0h6l1 1 1 13v83l-2-2v-92h-8l-1 4v-6z" fill="#FEFEFE"/>
<path transform="translate(993,571)" d="m0 0 1 2-3 7-6 7-2 5-12 12v-3l10-11v-2l-11 9-13 13-7 8-13 14v-3l11-12 7-8 6-7 3-4h2v-2l8-6 5-5 8-5z" fill="#FEFEFE"/>
<path transform="translate(991,183)" d="m0 0 5 5 8 11 1-4-3-9-1-2 11 3 27 8 14 4v3l-5 4 2-6-9-1-20-6-15-5 2 5v6l-2 3-4-1-6-9-3-5-5 1 2-4z" fill="#FEFEFE"/>
<path transform="translate(1e3 177)" d="m0 0 8 1 9 2h39l2 1 2 9-1 2h-15l-21-5-22-8zm24 5 1 4 8 2 6 2h17l1-4-1-4z" fill="#FEFEFE"/>
<path transform="translate(1247,621)" d="m0 0h1l1 9 1 1v11h-1l-2-11v14l-1 8h-1l-1 10-3 8-1-3-1-11 2-10 1-11v-11l4-2z" fill="#7A8B98"/>
<path transform="translate(771,735)" d="m0 0 4 1 2 2v3l6 3 1 3 14 8 12 3 13 4 14 4 2 2h-8l-22-6-18-8-12-8-9-7z" fill="#253D50"/>
<path transform="translate(1288,728)" d="m0 0h2v26l-3 1-2 5-3 3-6 5-8 4-1-2 7-5 7-11 2-6 2-1 3-9-2-1h2z" fill="#5A6F7F"/>
<path transform="translate(1200,327)" d="m0 0 5 5 9 7 18 10 7 6 6 10 1 6-1 1h-7l-2-7-1-4 4 3v-2l-4-3v-5l-15-8-16-11-4-6z" fill="#395265"/>
<path transform="translate(804,694)" d="m0 0 10 2 24 7 15 4v2l-2 1 1 2-3 1v-2l-19-4-9-2 3-1v-2l-5-1-12-4z" fill="#3A5367"/>
<path transform="translate(915,554)" d="m0 0 2 1-5 6-8 7-12 13-27 27-7 8-8 8-2-1 9-9 1-2h2l2-4 5-6 12-12 1-2h2v-2l8-7 2-3h2v-2h2v-2h2v-2h2v-2h2l2-4h2v-2l8-7z" fill="#F9FAFA"/>
<path transform="translate(1057,330)" d="m0 0h7v7l-5 4-8 7-7 6 2-4 15-15 1-2-6 2-13 12-10 11-10 13v-3l8-12 8-9 7-8z" fill="#FEFEFE"/>
<path transform="translate(1107,705)" d="m0 0h19l27 4-1 2h-8l-14-2h-8l-8 2-6 5-9 1 4-4 6-4z" fill="#263E51"/>
<path transform="translate(1055,617)" d="m0 0h1v8l-5 12-4 10v6l20 12 10 7 5 3v5l-9-3-9-4-3-3 9 3 7 2-17-11-17-10 1-5 9-24z" fill="#FEFEFE"/>
<path transform="translate(1071,221)" d="m0 0 14 8 4 3-6-1 1 1 11 7 9 4 16 3v-2l-11-3-16-6 4-1 7 3 17 4 2 3-1 4-11-1-16-5-9-5-10-9-5-5z" fill="#FEFEFE"/>
<path transform="translate(689,434)" d="m0 0 28 7 12 2-3 3-3 1h-12l-6-1-4-3-12-7z" fill="#3A5367"/>
<path transform="translate(707,304)" d="m0 0h1l1 16 6 14 7 9 9 8 6 2h12l1-1 7 1 7 2 5 4-1 2-5-4-5-1h-24l-10-6-8-10-6-11-3-8z" fill="#FEFEFE"/>
<path transform="translate(1137,307)" d="m0 0 8 6 9 6 11 5 6 2h12l-6-3-7-2v-1h7l9 3-1 6-2 1h-12l-12-5-9-4-10-9h-1l-2 6h-1z" fill="#FEFEFE"/>
<path transform="translate(683,610)" d="m0 0h62l-1 2-23 2h-20l-10-1v-2h-8z" fill="#263E51"/>
<path transform="translate(1079,375)" d="m0 0h1v6l-3 7-3 9-8 18-11 22-4 10-10 20-1-3 13-28 15-32 10-26z" fill="#FEFEFE"/>
<path transform="translate(1518,265)" d="m0 0h28l-1 6h-14l-15-1-6-2v-2z" fill="#3B5468"/>
<path transform="translate(1108,764)" d="m0 0h8l13 5v3l-13 10-9 4-18-6 3-3 1 2 10 3 4 1 11-6 5-4-1-4-9-2h-5l-8 6-5 3-2-1z" fill="#FEFEFE"/>
<path transform="translate(1085,760)" d="m0 0 2 1-10 7-8 5 3 2 4-1 1-5 10-6 2 1-6 5-4 3-1 4 10-5 5-3 2 1-10 7-6 2h-9l-10-2v-3l9-3 8-6z" fill="#FEFEFE"/>
<path transform="translate(851,439)" d="m0 0m-1 1 1 2h2l-2 4-17 26-4-1 2-6 12-19 5-5z" fill="#3F576B"/>
<path transform="translate(972,204)" d="m0 0h2l-1 5-7 8-9 9-5 1-4-1 1-3 6-4 13-13z" fill="#385165"/>
<path transform="translate(699,881)" d="m0 0 14 1 14 3 1 2-2 3-13-1-18-3-3-2h8l1-2z" fill="#263E51"/>
<path transform="translate(913,517)" d="m0 0 2 1-10 13-11 13-10 11-7 10-8 8-7 8-6 5 2-4 12-13 9-11 11-13 8-10 9-11z" fill="#273F52"/>
<path transform="translate(1039,358)" d="m0 0 1 3-5 6-8 10-5 8-7 10-6 8-10 15-4 5-7 8v-3l13-18 14-20 10-14 11-14z" fill="#FEFEFE"/>
<path transform="translate(1094,323)" d="m0 0 4 5 4 12v8l-13 12 12-3-4 4-2 1h-11v5l-3 8-1-3 3-14h3l2-4 7-3 4-6-1-6-2-8-2-4z" fill="#FEFEFE"/>
<path transform="translate(1127,243)" d="m0 0h1l2 7v9l-1 6 1 1v14l-2-4-1-5-4-1v-20l-3-2 4-1 1-3z" fill="#728492"/>
<path transform="translate(1242,626)" d="m0 0h1v10l-2 16-2 9h-1v-10l1-2 1-15-5 5-6 11-6 10-8 12-4 2-1-2 5-4 17-28z" fill="#FEFEFE"/>
<path transform="translate(1281,401)" d="m0 0h2l9 16 8 16 12 27 4 12-1 4-7-19-8-16-8-18-11-20z" fill="#243C4F"/>
<path transform="translate(1021,755)" d="m0 0 2 1-1 8 6-2-3 3-4 1 1 4h-2l-4 25-3-2v-9l4-23z" fill="#273F52"/>
<path transform="translate(861,797)" d="m0 0 5 5 4 5-1 5-4 13-4 24-1 12h2l2-9 1-5h1v12l-2 5-4-1-2-2v-14l1-2 1-10 5-20 2-4-1-4-5-8z" fill="#FEFEFE"/>
<path transform="translate(1074,751)" d="m0 0 6 1 7 4v2l-22 10-10 5-1 1h-6l-3-2v-2l5-2v2l7-1 4-3 10-4 11-5-1-2h-9l-5 4-2-1z" fill="#FEFEFE"/>
<path transform="translate(1060,746)" d="m0 0 8 1 2 1-1 3-12 8-14 9-12 3-3 2 1-4 5-5 23-16zm1 2-12 7-12 9-3 2v2l7-1 12-7 13-9v-3z" fill="#FEFEFE"/>
<path transform="translate(1218,207)" d="m0 0 3 3 7 15 4 14v13l-2 3-1-11-5-15-6-13 1-2v-1z" fill="#314A5D"/>
<path transform="translate(1059,289)" d="m0 0 4 2 10 10-3-6h3l9 12 4 8v4l-3-1v-2h-2l1 5-2-2-6-12-8-10-7-7z" fill="#263E51"/>
<path transform="translate(1138,261)" d="m0 0 2 2 2 6 4 6 9 6 22 11 25 15-1 2-29-16-21-11-10-9-3-8z" fill="#FEFEFE"/>
<path transform="translate(956,827)" d="m0 0h39l-1 2-8 2-10 1h-19l-2-2z" fill="#2C4457"/>
<path transform="translate(1234,573)" d="m0 0 1 3 2 4 10 21v2h-2l-5-11-4-8v-2l-8 7-7 6-5 1 5-5 8-7v-2l-6 5-2-1 9-9h2z" fill="#FAFBFB"/>
<path transform="translate(1256,696)" d="m0 0h1l3 20 1 13v25l-4 35h-1v-21l1-1 1-12 1-2v-20l-1-1-1-23-1-1z" fill="#FEFEFE"/>
<path transform="translate(1027,768)" d="m0 0h2v7l5 1 9 4v2l5 2 13 5 4 2-8-1-25-9-6-3-3-5 1-3z" fill="#263E51"/>
<path transform="translate(1057,740)" d="m0 0h6l12 6 3 1 1 3-8 4-6 5-3-1 5-5 3-5-10-1h-2v-2l-3 1 1-5z" fill="#243C4F"/>
<path transform="translate(616,532)" d="m0 0 11 1 4-1 21 2 4 2-4 2h-21l-6-1v-2l-8-1z" fill="#395266"/>
<path transform="translate(752,306)" d="m0 0h1l5 19 9 19 7 9 6 6 4-1v-14l2 1v14l-3 3-5-1-8-8-10-16-4-10-2-4-2-7z" fill="#FEFEFE"/>
<path transform="translate(711,152)" d="m0 0h1v9l-5 11-5 13-5 10-3 8-5 10-3 8-3 5-1-3 9-21 10-21 9-25z" fill="#FEFEFE"/>
<path transform="translate(1127,772)" d="m0 0h9l-5 5-11 7-5 3-7 1-12-4 4-1 8 2 11-6z" fill="#263F52"/>
<path transform="translate(1010,265)" d="m0 0 14 8-1-3-3-1 4-1 14 7-1 4 9 3v1l-10-1-14-7-12-8z" fill="#253E51"/>
<path transform="translate(1173,176)" d="m0 0 11 1 5 1 11 6 4 3-1 3-8-4-1 2-12-6-12-4z" fill="#263E51"/>
<path transform="translate(1478,317)" d="m0 0 8 1 13 3 14 1-1 2-7 2h-9l-17-5-3-1v-2z" fill="#294255"/>
<path transform="translate(772,680)" d="m0 0 4 2 14 9 11 5-1-3h4v2l9 3 11 4v2l-10-1-17-6-15-8-9-7z" fill="#253D50"/>
<path transform="translate(525,514)" d="m0 0 5 1 13 5 1 4 14 4 8 1v1h-10l-27-9-9-4v-2l5 1z" fill="#253D50"/>
<path transform="translate(1045,209)" d="m0 0 2 3 1 8 8-1 4-6 3 1 5 9 1 11-9 10-4 4 1-4 5-6h2l1-3v-12l-1-5-9 4h-6l-3-3-2-4z" fill="#FEFEFE"/>
<path transform="translate(1019,781)" d="m0 0 6 2 21 14 3 3-12-2-8-5-10-10z" fill="#31485B"/>
<path transform="translate(1056,248)" d="m0 0 2 4 3 10 2 1-1 9-3 5-3-1-1-21-1-4z" fill="#596E7E"/>
<path transform="translate(1123,311)" d="m0 0v3l-6 6-10 4h-3l4 13v5h13l1 5-1-3-15 2-1-9-3-10v-5l8-3 10-5z" fill="#FEFEFE"/>
<path transform="translate(1315,291)" d="m0 0h12l14 4v2l7-1-1 2h-13l-11-3h-16l4-3z" fill="#294155"/>
<path transform="translate(1037,679)" d="m0 0 9 3 11 6 7 5-3 2-8 1-9-6v-4l-3-3-3-1-1 3zm9 7v2l12 6-1-5-7-3z" fill="#FEFEFE"/>
<path transform="translate(989,558)" d="m0 0 1 3-5 6-7 8-29 29-5 2 6-7 13-12 14-15z" fill="#FEFEFE"/>
<path transform="translate(1303,614)" d="m0 0h1v21l-1 2-1 10-3 8-1 10-1 1-1 9-3 7-1-4 8-39z" fill="#FEFEFE"/>
<path transform="translate(712,596)" d="m0 0h34l-2 2-8 1h-19l-40-1v-1z" fill="#3A5367"/>
<path transform="translate(924,646)" d="m0 0h2l-1 4 4-4v3l-7 8-12 12-4 1 7-11 10-11z" fill="#354E62"/>
<path transform="translate(969,764)" d="m0 0 2 1-12 6-19 6h-5l-1-3 6-2z" fill="#284054"/>
<path transform="translate(1111,467)" d="m0 0 1 4-7 19-10 24-2 1-3-11 1-4 2 7h2l4-10 4-8 7-21z" fill="#FEFEFE"/>
<path transform="translate(1096,809)" d="m0 0 18 1 2 3-2 3h-18z" fill="#FEFEFE"/>
<path transform="translate(605,529)" d="m0 0h8l15 3-2 2-9-1 8 2v1l-10-1-11-2h-19l-8-1v-1l28-1z" fill="#263E51"/>
<path transform="translate(1095,609)" d="m0 0 5 1 15 5 16 2 27 1v2h-30l-19-4-14-6z" fill="#FEFEFE"/>
<path transform="translate(858,776)" d="m0 0 2 2 4 11 2 6-6 2-4-6-1-10z" fill="#445A6B"/>
<path transform="translate(1119,436)" d="m0 0h3v21l-2 1-1-18-1 1-4 22-2 4v-10l1-2 1-14z" fill="#FEFEFE"/>
<path transform="translate(1242,316)" d="m0 0 5 2 8 7 7 8 9 11 4 9 1 7-2-2-5-12-7-9-11-11-6-5z" fill="#2D4559"/>
<path transform="translate(1086,785)" d="m0 0h7l15 5h11l11 2v2h-9l-18-2-18-4-1-2z" fill="#253D50"/>
<path transform="translate(704,766)" d="m0 0h28l15 2v1h-13l-4-1h-17v3l3 2-5 1-8-2v-2l-2-1 3-1z" fill="#314A5D"/>
<path transform="translate(713,614)" d="m0 0h7l-1 2h-5v4h-10v-2h-8v15h-1l-2-17z" fill="#EEF0F1"/>
<path transform="translate(774,370)" d="m0 0h2l3 3 10 7 4 5 3 7v24h-2l-1-23-4-9-8-6-6-4z" fill="#FEFEFE"/>
<path transform="translate(1287,755)" d="m0 0 1 4-7 9-7 6-9 6-1 12-3 9-2 1 1-8 3-16 10-7 8-7z" fill="#FEFEFE"/>
<path transform="translate(1046,739)" d="m0 0h6l3 2-1 3v-2l-5-1-4 2-5 5-10 7-3 3h-3v2l12-6 3 1-15 9h-2l1-7 14-10 5-2 2-4z" fill="#FEFEFE"/>
<path transform="translate(1025,832)" d="m0 0h3l2 6 1 8v10l-2 3h-2l-1-5z" fill="#385064"/>
<path transform="translate(1240,827)" d="m0 0 2 1-2 10-6 17h-3l2-12 5-14z" fill="#364F62"/>
<path transform="translate(756,657)" d="m0 0 7 6 4 5 2 6h2v2h2l-1 2v2l-4-2-8-9-4-8z" fill="#263E52"/>
<path transform="translate(1314,489)" d="m0 0 1 4-5 9-8 7 5-3 4-5h2l-2 5-12 10h-2l1-4-2-1 11-10 5-8z" fill="#263E51"/>
<path transform="translate(1119,458)" d="m0 0h1v11l-6 16-9 18-3 8-7 9v-3l12-23 8-18z" fill="#FEFEFE"/>
<path transform="translate(661,226)" d="m0 0h6v2l-11 2-34 1-2-2 4-1 26-1z" fill="#FEFEFE"/>
<path transform="translate(751,675)" d="m0 0 3 4 7 13 3 8-1 2-3-1-8-15-2-5v-5z" fill="#354E61"/>
<path transform="translate(1133,247)" d="m0 0 2 3v4h2l3 15 3 6h-3l-3-3v-2h-2v-2h-2z" fill="#3A5366"/>
<path transform="translate(1061,697)" d="m0 0v3l-9 8 2 6-7-1-4-5v-2l5-2 4-4h6z" fill="#395266"/>
<path transform="translate(654,423)" d="m0 0h10l13 5 22 13 7 3-4 1-16-8-14-8-13-4-5-1z" fill="#253D50"/>
<path transform="translate(1276,364)" d="m0 0 2 1 1 4v23l-3 2-2-5z" fill="#223A4D"/>
<path transform="translate(1087,245)" d="m0 0 9 2 16 4 10 2 1 1 1 16 2 15-2-2-2-8-1-14-1-7h-8l-17-5-8-3z" fill="#FEFEFE"/>
<path transform="translate(720,679)" d="m0 0 3 4 7 8 12 12 10 15-1 2-7-9-9-11-13-13-2-4z" fill="#FEFEFE"/>
<path transform="translate(676,617)" d="m0 0h7l-3 3-1 19-2-2-1 13h-1l-1-6v-14l1-12z" fill="#284053"/>
<path transform="translate(1112,207)" d="m0 0 3 4 9 17v3l-5-2-7-13v-2h-2v-5z" fill="#3B5468"/>
<path transform="translate(976,565)" d="m0 0 2 1-4 6-13 13-2-1 14-15zm-18 20m-1 1m-1 1m-1 1m-2 1 2 1-8 9-9 7-2-1 7-7 8-7z" fill="#273F52"/>
<path transform="translate(1302,540)" d="m0 0 2 3 1 7v12h-2l-1 5-2-3-1-15h2v-8z" fill="#253D51"/>
<path transform="translate(986,182)" d="m0 0h2v9l-3 1-3 10h-1l-1-5-2-1 2-8 2-4z" fill="#3F576A"/>
<path transform="translate(1131,765)" d="m0 0 9 1 9 3-3 2-6 2-11-1-2-5h7z" fill="#3B5467"/>
<path transform="translate(956,507)" d="m0 0v3l-18 22-13 15-7 6 2-4 9-10 9-11 9-10 6-8z" fill="#FEFEFE"/>
<path transform="translate(1062,189)" d="m0 0 1 2 5 1 7 2 2 3h-13v9l-2-4h-2l-2-5 1-5h2z" fill="#243C4F"/>
<path transform="translate(759,112)" d="m0 0h1v7l-7 14-3 10-1 1-1 9-1 1-1 8h-2l1-9 4-18 9-20z" fill="#FEFEFE"/>
<path transform="translate(989,464)" d="m0 0h3v7l-7 11-6 8-2 1 2-5 8-11 3-8-5 5-8 10-3 3 2-6 9-11z" fill="#FEFEFE"/>
<path transform="translate(1366,291)" d="m0 0h20l9 2-1 2h-15l-16-1 3-1z" fill="#284054"/>
<path transform="translate(1118,612)" d="m0 0h8l3 2v1l25 1-4 2h-19l-14-2-1-2h3z" fill="#273F52"/>
<path transform="translate(946,523)" d="m0 0v3l-5 6h3l-2 5-6 5v-3l-5 4-4 3 2-5 11-12 5-5z" fill="#253E51"/>
<path transform="translate(1200,327)" d="m0 0 5 5 9 7 18 10 7 6-1 2-6-5-12-6-16-11-4-6z" fill="#FEFEFE"/>
<path transform="translate(1130,280)" d="m0 0 2 2 7 14 10 11 10 7 11 5-3 1-14-7-10-9-7-8-6-12z" fill="#FEFEFE"/>
<path transform="translate(1085,758)" d="m0 0h2v2l-12 6-8 6-6 1h-3l-2-1 6-4 12-5z" fill="#324B5F"/>
<path transform="translate(1196,644)" d="m0 0 2 1-2 3v3l-12 9-4-1 1-4 11-8z" fill="#294154"/>
<path transform="translate(1043,134)" d="m0 0 5 2 6 5 8 6 4 6-2 4-8-8-3-5-7-7z" fill="#395165"/>
<path transform="translate(943,138)" d="m0 0 1 3-5 8-10 20-2 5-6 6h-5l4-3 5-5 12-25z" fill="#FEFEFE"/>
<path transform="translate(812,66)" d="m0 0h20l2 1v2l-16 1-9 1-1-4z" fill="#233C4F"/>
<path transform="translate(1023,526)" d="m0 0h1v11l-1 1-1 12h-2v18h-2v13h-1v-14l4-31z" fill="#FEFEFE"/>
<path transform="translate(1510,266)" d="m0 0h8l26 3v2h-13l-15-1-6-2z" fill="#284053"/>
<path transform="translate(863,794)" d="m0 0 5 2 6 8v3h-2v6l-2-1-2-6-6-8z" fill="#2D4559"/>
<path transform="translate(1246,609)" d="m0 0 2 2 7 1 4 1 1 3-3 3-2-2-6 2-2 2-4-7z" fill="#3A5367"/>
<path transform="translate(1044,693)" d="m0 0 4 1 4 3 7 1-1 3h-6l-5 5-7-1-4-3 1-4 1 4 9 1 2-5-1-1-8-1 1-2z" fill="#FEFEFE"/>
<path transform="translate(1053,591)" d="m0 0 2 2-3 1-2 4-3 4 4-3h2l-2 4-5 4-6 3h-5l4-2 2-5 9-8z" fill="#253D50"/>
<path transform="translate(984,118)" d="m0 0m-4 1h4v2l-15 4-7 3-9 3-8 7v-3l8-7 16-6z" fill="#FEFEFE"/>
<path transform="translate(649,769)" d="m0 0h22l-1 3-3 1h-20l2-1z" fill="#253E51"/>
<path transform="translate(1006,518)" d="m0 0h4l-1 7-2 8-10 19-7 6 2-4 8-13 6-12 1-9z" fill="#FEFEFE"/>
<path transform="translate(846,624)" d="m0 0 2 1-15 15-6 5-5 7h-2l1-5 11-11 10-8z" fill="#FBFBFC"/>
<path transform="translate(750,623)" d="m0 0h2l-1 10-4 19-2 18h-1v-17l1-2 1-10 4-15-2-1z" fill="#FEFEFE"/>
<path transform="translate(986,431)" d="m0 0 1 2-5 8-5 6-6 7-3 5-6 5 2-4 14-19z" fill="#FEFEFE"/>
<path transform="translate(1053,800)" d="m0 0h6l14 5 8 2v3l-6 1-10-2-2-1v-2l9 1-19-6z" fill="#FEFEFE"/>
<path transform="translate(1257,694)" d="m0 0 3 2 2 6v19l-2-1-3-17z" fill="#263E51"/>
<path transform="translate(853,432)" d="m0 0v3l-10 14-11 18-1 2h-2l2-6 18-27z" fill="#FEFEFE"/>
<path transform="translate(1321,353)" d="m0 0h7v1l5 1v1l-26 3h-5v-2l12-3z" fill="#2B4457"/>
<path transform="translate(1124,269)" d="m0 0 4 2 3 13-1 5-2 1-3-8z" fill="#253E51"/>
<path transform="translate(740,633)" d="m0 0 1 2-12 24-2 8-1 9h-1v-11l5-15 6-11z" fill="#FEFEFE"/>
<path transform="translate(622,503)" d="m0 0 2 1-1 2 2 1-16 5-9 1 4-3 14-6z" fill="#294154"/>
<path transform="translate(995,718)" d="m0 0h8l-2 4h-26v-2z" fill="#223A4D"/>
<path transform="translate(1231,631)" d="m0 0v3l-9 15-9 17-2 5h-1v-6l6-10 6-11 7-11z" fill="#FEFEFE"/>
<path transform="translate(1115,183)" d="m0 0 2 1-9 8 5-2 4-4 2 1-7 7-5 3h-8l1-3 9-6z" fill="#294255"/>
<path transform="translate(743,162)" d="m0 0h1v13l-1 1-1 7-1 1-1 9-1 1-1 9-2 1 1-11z" fill="#FEFEFE"/>
<path transform="translate(1230,334)" d="m0 0 6 2 10 8 4 4-1 3-1-2-4-2-13-10z" fill="#354E62"/>
<path transform="translate(1165,319)" d="m0 0 12 3 8 3-2 2h-12l-3-3v-2l-3-1z" fill="#3B5468"/>
<path transform="translate(1073,237)" d="m0 0 5 3 1 5-1 6h-2l1 8h-2l-1-2z" fill="#273F53"/>
<path transform="translate(1218,207)" d="m0 0 3 3 5 10v8l1 5-2-1-7-16 1-2v-1z" fill="#253D51"/>
<path transform="translate(1207,640)" d="m0 0h1v5l-11 7-7 6-11 7-2-1 16-12 13-10z" fill="#FEFEFE"/>
<path transform="translate(1093,234)" d="m0 0 5 1 18 5 6 2 1 5-1 1h-5l-1-2h4v-2l-11-3-16-6z" fill="#F8F9F9"/>
<path transform="translate(1134,573)" d="m0 0 20 5 9 1-4 2-17-1-8-4z" fill="#385165"/>
<path transform="translate(882,555)" d="m0 0v3l-6 8-7 7-7 8-6 5 2-4 12-13 9-11z" fill="#243C4F"/>
<path transform="translate(590,363)" d="m0 0h26v2l-28 2v-3z" fill="#395266"/>
<path transform="translate(1237,661)" d="m0 0h1l-1 9-6 19-5 12h-2l2-6 5-12 4-16z" fill="#FEFEFE"/>
<path transform="translate(975,492)" d="m0 0 1 3-4 6-3 3-3 5-7 9-6 5 2-4 10-13z" fill="#FEFEFE"/>
<path transform="translate(1233,694)" d="m0 0 1 3-3 10-11 21h-3l10-19z" fill="#FEFEFE"/>
<path transform="translate(1091,631)" d="m0 0 9 2 4 1v4l5 2-3 1-15-6z" fill="#273F52"/>
<path transform="translate(1036,126)" d="m0 0 5 2 11 8 6 6-1 2-8-6-13-10z" fill="#273F52"/>
<path transform="translate(1102,721)" d="m0 0 10 3 18 4 1 2-12-1-17-4v-3z" fill="#2B4357"/>
<path transform="translate(676,625)" d="m0 0h1l1 14h2v9l-1 7-2-2-1-3z" fill="#395266"/>
<path transform="translate(1234,632)" d="m0 0 2 1-3 7-4 2-5 8-2-1 2-5 7-11z" fill="#354E62"/>
<path transform="translate(1147,841)" d="m0 0h2l-1 10-1 5h-7l3-6 2-8z" fill="#273F52"/>
<path transform="translate(680,854)" d="m0 0 2 1v23h-3v-19z" fill="#253D50"/>
<path transform="translate(1048,834)" d="m0 0h11l6 1 6 2 5 3 2 2-7-1-13-4-10-2z" fill="#253E51"/>
<path transform="translate(914,814)" d="m0 0 18 6-2 1v2l-3 1-11-6z" fill="#364E62"/>
<path transform="translate(945,532)" d="m0 0 1 3-9 11-11 11v-3l10-11z" fill="#FEFEFE"/>
<path transform="translate(626,502)" d="m0 0h14l4 3-21 1 1-3z" fill="#243C50"/>
<path transform="translate(670,422)" d="m0 0 5 1 17 9 5 3-1 2-8-3-8-5-10-6z" fill="#253D50"/>
<path transform="translate(1008,262)" d="m0 0 5 2 2-1 7 4-1 2 2 1v2l3 1-2 1-17-10z" fill="#3A5367"/>
<path transform="translate(771,735)" d="m0 0 4 1 2 2v3l6 3 1 5-6-4-8-6z" fill="#274053"/>
<path transform="translate(1007,716)" d="m0 0 4 1 6-1v3l-12 3h-4l-1-5z" fill="#3B5468"/>
<path transform="translate(1257,641)" d="m0 0h1v18l-1 10h-2l-1-9h2v-18z" fill="#FEFEFE"/>
<path transform="translate(1299,597)" d="m0 0h1v9l-3 28h-1v-19l1-2 1-15z" fill="#FEFEFE"/>
<path transform="translate(972,494)" d="m0 0 1 2-8 11-10 13-2 1 2-5 9-12z" fill="#253D50"/>
<path transform="translate(960,465)" d="m0 0 1 2-7 10-7 9-6 8-3 2 2-4 12-16z" fill="#FEFEFE"/>
<path transform="translate(752,292)" d="m0 0 3 1 3 6 1 7 1 1v7l-2-3-4-15h-1l-1 9-2-2v-6z" fill="#FEFEFE"/>
<path transform="translate(1260,616)" d="m0 0 2 1 1 14v15l-2 4-1-28-2-4z" fill="#284053"/>
<path transform="translate(727,213)" d="m0 0h1l-1 16-2 20h-1v-23l1-1 1-11z" fill="#FEFEFE"/>
<path transform="translate(1110,708)" d="m0 0 6 1-5 5-3 2-9 1 4-4z" fill="#30495C"/>
<path transform="translate(748,677)" d="m0 0 2 1 2 7-2-1v-2h-2l2 4v16h-1l-2-14-1-1v-8z" fill="#CAD1D6"/>
<path transform="translate(586,423)" d="m0 0h10l19 6 4 2-10-1-13-4-10-2z" fill="#263E51"/>
<path transform="translate(1084,696)" d="m0 0 5 1 18 6 5 1v2l-13-2-10-4-5-3z" fill="#3B5468"/>
<path transform="translate(1020,671)" d="m0 0 2 2 2 17 3-3 3-4-1 6-3 7h-2l-4-18z" fill="#FEFEFE"/>
<path transform="translate(721,610)" d="m0 0h24l-1 2-18 1-6-1z" fill="#3A5367"/>
<path transform="translate(1012,583)" d="m0 0h1l3 32v5h-2l-1-11-1-2z" fill="#FEFEFE"/>
<path transform="translate(980,246)" d="m0 0 5 2 7 4v-6l4 1-1 8-7-1-8-7z" fill="#FEFEFE"/>
<path transform="translate(1282,724)" d="m0 0 2 1 2 7 2 1v9l-3 7-1-4-1-12z" fill="#263E51"/>
<path transform="translate(1040,685)" d="m0 0 2 1-6 11-3 3h-3v-6l3-5 1 2-2 5h2l2-6z" fill="#FEFEFE"/>
<path transform="translate(1219,588)" d="m0 0 2 1-10 6-3 1h-13v-1l16-4z" fill="#3B5468"/>
<path transform="translate(1096,571)" d="m0 0 8 6 13 8 6 3-3 1-10-5-13-9z" fill="#FEFEFE"/>
<path transform="translate(1039,467)" d="m0 0h1v8l-1 1v6l9 7 3 5-4-2-11-10 1-8z" fill="#FEFEFE"/>
<path transform="translate(1128,291)" d="m0 0 2 2 4 8-1 4h-2l-2 3h-3l-1-2-2-1 4-3 4-1-3-6z" fill="#FEFEFE"/>
<path transform="translate(956,827)" d="m0 0h11l13 2v1h-24z" fill="#3B5468"/>
<path transform="translate(1033,734)" d="m0 0 1 3-5 6h3v2l-8 5-1-2 4-8 5-5z" fill="#FEFEFE"/>
<path transform="translate(1025,725)" d="m0 0 6 2 2 3-7 6-2-2v-8zm2 3-1 3 3-1v-2z" fill="#FEFEFE"/>
<path transform="translate(1159,613)" d="m0 0h18l3 1v2h-14l-9-1z" fill="#2A4356"/>
<path transform="translate(681,226)" d="m0 0h1v5l-1 1-1 7-3 6-3 12-2 1 1-7 7-23z" fill="#FEFEFE"/>
<path transform="translate(1030,127)" d="m0 0 10 5 9 7 7 7-1 2-12-11-13-8z" fill="#233B4F"/>
<path transform="translate(1011,791)" d="m0 0h1l-1 15-2 19h-1v-20l1-2 1-10z" fill="#FEFEFE"/>
<path transform="translate(1287,696)" d="m0 0h1v9l-1 1v11l1 2v9l-2-3-2-10 2-16z" fill="#FEFEFE"/>
<path transform="translate(1247,563)" d="m0 0 3 1 3 7 1 10-2-2-3-12h-2l-2 3-1 11h-1v-12z" fill="#FEFEFE"/>
<path transform="translate(1050,800)" d="m0 0 10 2 19 6-4 1-16-4-9-4z" fill="#294255"/>
<path transform="translate(1215,727)" d="m0 0 3 2-2 5-8 4v-7l3-2v4l3-5z" fill="#EBEDEF"/>
<path transform="translate(1130,706)" d="m0 0 16 2 7 1-1 2h-8l-14-2z" fill="#2A4356"/>
<path transform="translate(1314,489)" d="m0 0 1 4-5 9-8 7h-2l-1 2 1-4 7-6 5-8z" fill="#253D50"/>
<path transform="translate(1216,355)" d="m0 0h8l1 2-1 2h-10l-9-1v-1z" fill="#284053"/>
<path transform="translate(1196,327)" d="m0 0 6 4-1 13h-2l-2-9z" fill="#3E576A"/>
<path transform="translate(1070,723)" d="m0 0 9 3 14 5v1l-9-1-14-5z" fill="#2B4357"/>
<path transform="translate(743,673)" d="m0 0h1v24l-4-2 2-1v-20z" fill="#FEFEFE"/>
<path transform="translate(1259,529)" d="m0 0 3 1-5 10-4 13-2 1 1-9 6-13z" fill="#273F52"/>
<path transform="translate(1031,498)" d="m0 0h1v9l-5 12-2 7h-1l1-8z" fill="#FEFEFE"/>
<path transform="translate(1258,363)" d="m0 0 4 4 7 15-1 3-4-6-6-14z" fill="#FEFEFE"/>
<path transform="translate(1078,248)" d="m0 0h1l1 14h-6v-5l1 2 1-1v-7h2z" fill="#8897A3"/>
<path transform="translate(967,493)" d="m0 0h3l-2 5-5 6-6 3 2-4z" fill="#7F8D99"/>
<path transform="translate(1244,581)" d="m0 0 3 4 3 6v3h2l1-5h1v11l-5-5-5-11z" fill="#FEFEFE"/>
<path transform="translate(1060,668)" d="m0 0 9 1 11 7-2 1-15-6z" fill="#2C4558"/>
<path transform="translate(1230,580)" d="m0 0 1 2-7 8-9 5 2-4 6-5z" fill="#294155"/>
<path transform="translate(1094,566)" d="m0 0 5 1 7 5-3 1-1 1h-3l-5-4z" fill="#4C6274"/>
<path transform="translate(1281,762)" d="m0 0v3l-9 8-3 2-5-1 1-3 6-1 8-6z" fill="#253D50"/>
<path transform="translate(1239,357)" d="m0 0 4 4 3 6-1 5h-7l-2-7-1-4 4 4v6l5-1-4-10z" fill="#F9FAFA"/>
<path transform="translate(1255,356)" d="m0 0 4 2 4 5 2 4-1 3-6-6-2-4z" fill="#3A5367"/>
<path transform="translate(1099,231)" d="m0 0 9 2 13 3 1-2 1 4h-7l-16-5z" fill="#3B5468"/>
<path transform="translate(828,612)" d="m0 0v3l-9 8-9 6-2-1 13-10z" fill="#273F52"/>
<path transform="translate(879,593)" d="m0 0 1 3-12 12-3 1 2-4z" fill="#243C4F"/>
<path transform="translate(1168,835)" d="m0 0h7v2l-4 1-2-1v2h-8l-2-1v-2z" fill="#243D50"/>
<path transform="translate(1094,759)" d="m0 0 9 1-2 4-3 3-2-1 3-3h-10l3-3z" fill="#FEFEFE"/>
<path transform="translate(758,601)" d="m0 0h1v5l-3 4h-2l-2 4 1-10z" fill="#274053"/>
<path transform="translate(1087,796)" d="m0 0 10 1 9 2v2l-16-2-3-1z" fill="#2B4457"/>
<path transform="translate(1082,599)" d="m0 0 10 3 5 2-2 3-7-2-6-5z" fill="#324B5E"/>
<path transform="translate(789,488)" d="m0 0 3 1v20h-1l-2-11z" fill="#223A4D"/>
<path transform="translate(1194,311)" d="m0 0h7l-3 1 2 9v6l-2-3-4-10z" fill="#FEFEFE"/>
<path transform="translate(753,295)" d="m0 0 2 1 1 10-3 3-1-3v-10z" fill="#284054"/>
<path transform="translate(1215,289)" d="m0 0h2l6 9-3 3-3-3v-3h-2z" fill="#314A5E"/>
<path transform="translate(887,240)" d="m0 0h12l8 4-4 1-16-4z" fill="#273F53"/>
<path transform="translate(680,86)" d="m0 0h1l3 10 12 11h-3l-8-7-4-5-1-2z" fill="#FEFEFE"/>
<path transform="translate(1255,616)" d="m0 0 3 3v12l-2-1v-12l-5 2-3-1 2-2z" fill="#FEFEFE"/>
<path transform="translate(1250,607)" d="m0 0 5 1 2 4-2 1-7-1v-4z" fill="#FEFEFE"/>
<path transform="translate(1264,338)" d="m0 0 4 2 6 10 2 10-2-2-5-12z" fill="#253E51"/>
<path transform="translate(1228,328)" d="m0 0 5 2 11 7 4 5-4-2-15-10z" fill="#FEFEFE"/>
<path transform="translate(1240,827)" d="m0 0 2 1-2 10-2 1-1-2v-6z" fill="#2A4255"/>
<path transform="translate(883,776)" d="m0 0 17 3 1 2h-7l-14-3z" fill="#263E52"/>
<path transform="translate(1102,762)" d="m0 0v3l-5 5h-2v2l-6 4h-2l1-3 6-4 1-2 5-3z" fill="#3E576A"/>
<path transform="translate(1049,694)" d="m0 0 7 1h7v3h-11l-3-2z" fill="#263E51"/>
<path transform="translate(506,509)" d="m0 0 11 1 3 3v2l-10-3-4-1z" fill="#385165"/>
<path transform="translate(1194,305)" d="m0 0 8 4v2h-8l-1 2 1-4-3-2h3z" fill="#3A5266"/>
<path transform="translate(1021,645)" d="m0 0h1v15l-1 1-1 9h-1v-11z" fill="#FEFEFE"/>
<path transform="translate(1238,586)" d="m0 0h2l7 15v2h-2l-5-11-2-3z" fill="#FEFEFE"/>
<path transform="translate(1117,790)" d="m0 0 13 2v2h-9l-7-1z" fill="#2C4558"/>
<path transform="translate(1239,672)" d="m0 0h1v7l-2 10-3 5-1-3z" fill="#FEFEFE"/>
<path transform="translate(726,676)" d="m0 0 4 4 9 11v3l-11-12-2-3z" fill="#FEFEFE"/>
<path transform="translate(1039,662)" d="m0 0h1l1 8 11 7-2 1-11-6z" fill="#FEFEFE"/>
<path transform="translate(862,616)" d="m0 0v3l-7 7-6 5-2-1 10-10z" fill="#243C50"/>
<path transform="translate(671,258)" d="m0 0h1v12h-2v9l-2 1 1-12z" fill="#FEFEFE"/>
<path transform="translate(1117,186)" d="m0 0 2 1-7 7-5 3-4-1 1-2 5-2 6-4z" fill="#243C50"/>
<path transform="translate(716,77)" d="m0 0 13 1v1l-6 1h-17v-1z" fill="#263E51"/>
<path transform="translate(1016,677)" d="m0 0 2 3 4 13v5l-2-3-1-8h-2l-1-2z" fill="#536676"/>
<path transform="translate(1491,320)" d="m0 0 17 2-2 2h-11z" fill="#3A5367"/>
<path transform="translate(1035,731)" d="m0 0 6 3 2 3-5 4-5 1 5-4 1-3-5-1z" fill="#FEFEFE"/>
<path transform="translate(1128,690)" d="m0 0 2 1-2 4v1l-10 1 2-3z" fill="#31495D"/>
<path transform="translate(1087,335)" d="m0 0h1v16l-3 6-1-3 2-9z" fill="#FEFEFE"/>
<path transform="translate(1114,344)" d="m0 0h7v4h-5-3l-3-1 1-2z" fill="#2E4658"/>
<path transform="translate(1049,774)" d="m0 0 8 1-1 4-8-1z" fill="#233B4E"/>
<path transform="translate(1228,638)" d="m0 0h2l-1 4-5 8-2-1 2-5z" fill="#294154"/>
<path transform="translate(760,319)" d="m0 0 2 1 7 16-1 2-5-8v-4h-2z" fill="#253D50"/>
<path transform="translate(1032,794)" d="m0 0 9 2h3l5 3-3 1-11-3z" fill="#8C9AA4"/>
<path transform="translate(989,776)" d="m0 0 3 1-12 5h-2l-1-3z" fill="#2C4458"/>
<path transform="translate(1021,709)" d="m0 0 1 2-4 7-2-1-6 1v-2l9-4z" fill="#253D50"/>
<path transform="translate(1052,678)" d="m0 0 5 2 12 7v1h-5l-4-4-7-3z" fill="#CBD2D7"/>
<path transform="translate(1025,832)" d="m0 0h3l1 2v6h-2v5h-1z" fill="#223A4D"/>
<path transform="translate(861,771)" d="m0 0 3 1v2l10 1v1h-9l-8-2z" fill="#253D50"/>
<path transform="translate(1028,125)" d="m0 0 9 3 6 5h-3l-11-6z" fill="#3B5468"/>
<path transform="translate(1116,726)" d="m0 0 8 1 7 2v1l-12-1-3-1z" fill="#2E465A"/>
<path transform="translate(1076,520)" d="m0 0 5 3 3 4-1 3h-3l-2-6z" fill="#223A4D"/>
<path transform="translate(1309,355)" d="m0 0h5v3l-12 1v-2z" fill="#344D61"/>
<path transform="translate(1098,811)" d="m0 0 16 2v1h-16z" fill="#3B5468"/>
<path transform="translate(1072,770)" d="m0 0 2 1 2 4-4 1-4-2z" fill="#657886"/>
<path transform="translate(1180,656)" d="m0 0m-2 1h2v2l3 1-5 4-2-1v-1l-2-1z" fill="#223A4D"/>
<path transform="translate(1063,570)" d="m0 0 2 4-4 9h-2l2-9z" fill="#284053"/>
<path transform="translate(943,532)" d="m0 0v3l-6 7-2-2 6-7z" fill="#233B4E"/>
<path transform="translate(1143,850)" d="m0 0h3l1 6h-7z" fill="#344D61"/>
<path transform="translate(928,774)" d="m0 0h6l1 3 2 1h-7v-2l-4-1z" fill="#314A5E"/>
<path transform="translate(1039,605)" d="m0 0 1 3-3 3-7 1 1-3z" fill="#375064"/>
<path transform="translate(1053,591)" d="m0 0 2 2-3 1-2 4-4 2 6-8zm-8 9m-1 1m-2 1 2 1-4 3z" fill="#263E52"/>
<path transform="translate(866,573)" d="m0 0h2l-2 4-9 9v-3z" fill="#294155"/>
<path transform="translate(622,503)" d="m0 0 2 1-1 2 2 1-8 1v-3z" fill="#2C4458"/>
<path transform="translate(1057,247)" d="m0 0 2 4 4 7v4h-2l-4-10z" fill="#253D51"/>
<path transform="translate(850,708)" d="m0 0h7l6 2v1h-12z" fill="#253E51"/>
<path transform="translate(972,494)" d="m0 0 1 2-7 10-2-2z" fill="#263F52"/>
<path transform="translate(1044,490)" d="m0 0 10 5 2 3-6-3-1 3-3-3v-2z" fill="#768795"/>
<path transform="translate(994,562)" d="m0 0h2v2h-2z" fill="#FEFEFE"/>
</svg>
